<svg width="105" height="105" viewBox="0 0 105 105" fill="none" xmlns="http://www.w3.org/2000/svg">
<g clip-path="url(#clip0)">
<path d="M47.1174 9.31571C48.0006 9.31571 48.7166 8.59972 48.7166 7.71651C48.7166 6.83329 48.0006 6.11731 47.1174 6.11731C46.2342 6.11731 45.5182 6.83329 45.5182 7.71651C45.5182 8.59972 46.2342 9.31571 47.1174 9.31571Z" fill="black"/>
<path d="M26.1815 33.6923H68.0534C68.9028 33.6923 69.5914 33.0039 69.5914 32.1542C69.5914 31.3046 68.9028 30.6161 68.0534 30.6161H26.1815C25.3321 30.6161 24.6434 31.3046 24.6434 32.1542C24.6434 33.0039 25.3321 33.6923 26.1815 33.6923Z" fill="black"/>
<path d="M26.1815 43.3777H68.0534C68.9028 43.3777 69.5914 42.6892 69.5914 41.8396C69.5914 40.99 68.9028 40.3015 68.0534 40.3015H26.1815C25.3321 40.3015 24.6434 40.99 24.6434 41.8396C24.6434 42.6892 25.3321 43.3777 26.1815 43.3777Z" fill="black"/>
<path d="M26.1815 53.0632H49.2864C50.1359 53.0632 50.8245 52.3747 50.8245 51.5251C50.8245 50.6754 50.1359 49.987 49.2864 49.987H26.1815C25.3321 49.987 24.6434 50.6754 24.6434 51.5251C24.6434 52.3747 25.3321 53.0632 26.1815 53.0632Z" fill="black"/>
<path d="M43.0988 61.2107C43.0988 60.3611 42.4102 59.6726 41.5607 59.6726H26.1815C25.3321 59.6726 24.6434 60.3611 24.6434 61.2107C24.6434 62.0603 25.3321 62.7488 26.1815 62.7488H41.5607C42.4102 62.7488 43.0988 62.0601 43.0988 61.2107Z" fill="black"/>
<path d="M66.0653 83.3895C65.3382 82.9498 64.3926 83.1834 63.9534 83.9102C63.5139 84.6372 63.747 85.5828 64.474 86.0223C66.2332 87.0856 67.4362 87.4082 68.9769 87.4923V87.9777C68.9769 88.8273 69.6656 89.5158 70.515 89.5158C71.3645 89.5158 72.0531 88.8273 72.0531 87.9777V87.3311C74.8375 86.7001 76.8288 84.4936 77.227 81.9416C77.6817 79.0277 76.0216 76.5067 72.9977 75.5192C72.6675 75.4113 72.3544 75.3131 72.0531 75.2198V69.6218C72.8377 69.9187 73.3219 70.3135 73.3695 70.3533C74.0104 70.9029 74.9757 70.8336 75.5308 70.1954C76.0884 69.5547 76.0212 68.5832 75.3805 68.0254C75.2999 67.9553 74.037 66.8807 72.0529 66.4205V65.7737C72.0529 64.924 71.3643 64.2356 70.5148 64.2356C69.6654 64.2356 68.9767 64.924 68.9767 65.7737V66.3219C66.1782 66.7872 64.3904 68.7621 63.964 71.1018C63.3426 74.511 65.7057 76.2745 68.9767 77.459V84.411C67.9079 84.3345 67.225 84.0906 66.0653 83.3895ZM74.1876 81.4673C73.9868 82.7546 73.107 83.6364 72.0531 84.0886V78.4467C74.2895 79.1825 74.2911 80.8037 74.1876 81.4673ZM66.9906 71.6533C67.1353 70.8588 67.7346 69.8113 68.9474 69.4737C68.9573 69.471 68.9669 69.469 68.9769 69.4663V74.1349C67.6327 73.492 66.7432 73.0084 66.9906 71.6533Z" fill="black"/>
<path d="M94.5802 69.9554C94.0456 68.0907 93.2938 66.2938 92.3393 64.5992C93.5528 62.4691 93.2138 59.7784 91.446 58.0102L89.371 55.9355C88.9258 55.4902 88.4219 55.1361 87.8834 54.8742V16.4325C87.8834 12.3736 84.5812 9.07122 80.5223 9.07122C79.4367 9.07122 56.1004 9.07122 54.9431 9.07122V7.82578C54.9431 3.51053 51.4326 0 47.1174 0C42.8021 0 39.2916 3.51053 39.2916 7.82578V9.07122C38.1243 9.07122 14.7837 9.07122 13.7124 9.07122C9.65349 9.07122 6.35132 12.3736 6.35132 16.4325V97.6391C6.35132 101.698 9.65349 105 13.7124 105H80.5221C84.1155 105 87.1607 102.354 87.7702 98.9086C88.351 98.6422 88.8949 98.2734 89.3708 97.7974L91.4458 95.7225C93.2136 93.9547 93.5526 91.2641 92.3391 89.1339C93.2934 87.4396 94.0452 85.6429 94.58 83.7777C96.8779 83.4428 98.6484 81.4593 98.6484 79.0701V74.6634C98.6486 72.2738 96.8781 70.2903 94.5802 69.9554ZM39.6261 12.1474C41.1379 12.1474 42.368 10.9175 42.368 9.4057V7.82578C42.368 5.20673 44.4985 3.07617 47.1176 3.07617C49.7366 3.07617 51.8672 5.20693 51.8672 7.82578V9.4057C51.8672 10.9175 53.0972 12.1474 54.6091 12.1474H62.5148V18.3414C62.5148 18.643 62.2696 18.8883 61.9679 18.8883H32.2672C31.9656 18.8883 31.7203 18.643 31.7203 18.3414V12.1474H39.6261ZM9.4277 97.6389V16.4325C9.4277 14.0698 11.3499 12.1474 13.7126 12.1474H15.5368V90.7834C15.5368 93.3253 17.6046 95.3931 20.1465 95.3931H42.7917C43.6411 95.3931 44.3297 94.7047 44.3297 93.855C44.3297 93.0054 43.6411 92.3169 42.7917 92.3169H20.1463C19.3006 92.3169 18.6127 91.6291 18.6127 90.7834V12.1474H28.6441V18.3414C28.6441 20.339 30.2694 21.9645 32.2672 21.9645H61.9677C63.9656 21.9645 65.5908 20.339 65.5908 18.3414V12.1474H75.6222V45.9367C75.6222 46.7863 76.3108 47.4748 77.1603 47.4748C78.0097 47.4748 78.6984 46.7863 78.6984 45.9367V12.1474H80.5225C82.8852 12.1474 84.8074 14.0696 84.8074 16.4325V54.3691C84.1087 54.4573 83.4203 54.6787 82.7823 55.0421C81.0881 54.0879 79.2913 53.3361 77.4259 52.8013C77.0912 50.5034 75.1077 48.7329 72.7183 48.7329H68.3116C65.9224 48.7329 63.9389 50.5034 63.604 52.8013C61.7386 53.3361 59.9415 54.0879 58.2476 55.0421C56.1176 53.8289 53.4268 54.1677 51.6588 55.9355L49.5836 58.0104C47.8159 59.7784 47.4769 62.4691 48.6903 64.5992C47.7359 66.2938 46.9841 68.0907 46.4494 69.9554C44.1515 70.2903 42.3811 72.2738 42.3811 74.663V79.0697C42.3811 81.4589 44.1515 83.4424 46.4494 83.7773C46.9841 85.6421 47.7357 87.4389 48.6903 89.1335C47.4769 91.2635 47.8159 93.9543 49.5836 95.7223L51.6586 97.797C53.4264 99.565 56.117 99.9044 58.2474 98.6904C59.9419 99.6448 61.7388 100.397 63.6038 100.931C63.654 101.276 63.7453 101.607 63.8657 101.924H13.7126C11.3499 101.924 9.4277 100.002 9.4277 97.6389ZM80.5223 101.924H77.164C77.2841 101.607 77.3756 101.276 77.4259 100.932C79.2908 100.397 81.0877 99.6452 82.7823 98.6908C83.3141 98.9937 83.8809 99.1998 84.4594 99.3111C83.8011 100.841 82.2747 101.924 80.5223 101.924ZM95.5724 79.0699C95.5724 79.9969 94.8181 80.7509 93.8912 80.7509C92.8924 80.7509 92.0194 81.4289 91.768 82.399C91.2549 84.3759 90.4653 86.2721 89.4213 88.0351C88.9783 88.7834 89.0208 89.7287 89.5296 90.4423C90.2156 91.405 90.1067 92.7109 89.2706 93.5472L87.1956 95.622C86.3611 96.4566 85.0537 96.5672 84.0909 95.8812C83.3772 95.3726 82.4324 95.3299 81.6835 95.7731C79.9204 96.817 78.0241 97.6063 76.0473 98.1194C75.0769 98.3715 74.3991 99.2445 74.3991 100.243C74.3991 101.17 73.645 101.924 72.7181 101.924H68.3114C67.3844 101.924 66.6303 101.17 66.6303 100.243C66.6303 99.2447 65.9526 98.3715 64.9821 98.1194C63.0054 97.6063 61.109 96.8168 59.3456 95.7727C58.5993 95.3312 57.6541 95.3712 56.9386 95.8812C55.9759 96.5674 54.67 96.4585 53.8339 95.622L51.7589 93.5472C50.9226 92.7109 50.8139 91.4052 51.4997 90.4423C52.0087 89.7282 52.0511 88.7832 51.608 88.0351C50.5641 86.2721 49.7746 84.3759 49.2617 82.3992C49.0098 81.4287 48.1366 80.7509 47.1383 80.7509C46.2113 80.7509 45.4573 79.9967 45.4573 79.0699V74.6632C45.4573 73.7363 46.2115 72.9822 47.1385 72.9822C48.1366 72.9822 49.0098 72.3044 49.2617 71.334C49.7748 69.357 50.5643 67.4609 51.608 65.6982C52.0513 64.9499 52.0089 64.0049 51.5001 63.2908C50.8139 62.328 50.923 61.0222 51.7591 60.1859L53.8343 58.1109C54.6704 57.2746 55.9761 57.1659 56.9396 57.8525C57.6535 58.3605 58.598 58.4032 59.3464 57.96C61.1088 56.9161 63.005 56.1268 64.9823 55.6137C65.9528 55.3617 66.6306 54.4886 66.6306 53.4903C66.6306 52.5634 67.3846 51.8093 68.3116 51.8093H72.7183C73.6452 51.8093 74.3993 52.5636 74.3993 53.4903C74.3993 54.4884 75.0771 55.3617 76.0475 55.6137C78.0249 56.1268 79.921 56.9164 81.6841 57.9604C82.432 58.4028 83.3766 58.3607 84.0911 57.8519C84.6477 57.4555 85.3185 57.3263 85.9473 57.4477C85.9948 57.4604 86.0432 57.4709 86.0927 57.4791C86.4981 57.5839 86.8806 57.7955 87.196 58.1109L89.2708 60.1855C90.1071 61.0218 90.216 62.3275 89.53 63.2906C89.021 64.0047 88.9785 64.9497 89.4217 65.6978C90.4655 67.4607 91.2551 69.357 91.7682 71.3336C92.0198 72.304 92.8931 72.982 93.8916 72.982C94.8185 72.982 95.5726 73.7363 95.5726 74.663V79.0699H95.5724Z" fill="black"/>
<path d="M70.5151 58.4412C61.9484 58.4412 54.5783 64.2533 52.5925 72.5751C52.3952 73.4014 52.9052 74.2311 53.7315 74.4282C54.5573 74.6255 55.3873 74.1157 55.5846 73.2892C57.2385 66.358 63.3782 61.5173 70.5151 61.5173C78.9787 61.5173 85.8642 68.4028 85.8642 76.8666C85.8642 85.3304 78.9787 92.2159 70.5151 92.2159C63.1891 92.2159 56.8538 87.0067 55.4513 79.8294C55.2884 78.9955 54.48 78.4512 53.6468 78.6149C52.8132 78.7777 52.2693 79.5855 52.4323 80.4194C54.1164 89.0372 61.7215 95.2921 70.5153 95.2921C80.6751 95.2921 88.9406 87.0264 88.9406 76.8666C88.9406 66.7068 80.6749 58.4412 70.5151 58.4412Z" fill="black"/>
</g>
<defs>
<clipPath id="clip0">
<rect width="105" height="105" fill="white"/>
</clipPath>
</defs>
</svg>
