<svg width="126" height="126" viewBox="0 0 126 126" fill="none" xmlns="http://www.w3.org/2000/svg">
<path d="M117.598 2.09985H8.40213C3.76942 2.09985 0 5.86952 0 10.502V79.7998C0 80.9589 0.940816 81.8997 2.09992 81.8997H123.9C125.059 81.8997 126 80.9589 126 79.7998V10.502C126 5.86952 122.231 2.09985 117.598 2.09985ZM121.8 77.6999H4.20008V10.502C4.20008 8.18354 6.0859 6.29994 8.40213 6.29994H117.598C119.914 6.29994 121.8 8.18354 121.8 10.502V77.6999Z" fill="white"/>
<path d="M123.9 77.7H2.09992C0.940816 77.7 0 78.6408 0 79.7999V90.2977C0 94.9305 3.76942 98.6999 8.40213 98.6999H117.598C122.231 98.6999 126 94.9305 126 90.2977V79.7999C126 78.6408 125.059 77.7 123.9 77.7ZM121.8 90.298C121.8 92.6164 119.914 94.5 117.598 94.5H8.40213C6.0859 94.5 4.20008 92.6164 4.20008 90.298V81.9H121.8V90.298H121.8Z" fill="white"/>
<path d="M69.3 86.1001H56.7C55.5409 86.1001 54.6001 87.0409 54.6001 88.2C54.6001 89.3591 55.5409 90.2999 56.7 90.2999H69.3C70.4591 90.2999 71.3999 89.3591 71.3999 88.2C71.3999 87.0409 70.4591 86.1001 69.3 86.1001Z" fill="white"/>
<path d="M115.5 10.5H10.5001C9.34098 10.5 8.40016 11.4408 8.40016 12.5999V79.8C8.40016 80.9591 9.34098 81.8999 10.5001 81.8999H115.5C116.659 81.8999 117.6 80.9591 117.6 79.8V12.5999C117.6 11.4408 116.659 10.5 115.5 10.5ZM113.4 77.6998H12.6V14.6998H113.4V77.6998Z" fill="white"/>
<path d="M90.2999 111.3H35.7001C32.2267 111.3 29.4001 114.127 29.4001 117.6C29.4001 121.073 32.2267 123.9 35.7001 123.9H90.3002C93.7735 123.9 96.6002 121.073 96.6002 117.6C96.6002 114.127 93.7733 111.3 90.2999 111.3ZM90.2999 119.7H35.7001C34.541 119.7 33.6002 118.757 33.6002 117.6C33.6002 116.443 34.541 115.5 35.7001 115.5H90.3002C91.4593 115.5 92.4001 116.443 92.4001 117.6C92.4001 118.757 91.4593 119.7 90.2999 119.7Z" fill="white"/>
<path d="M86.1001 111.3C79.1322 111.3 75.6 106.355 75.6 96.6002C75.6 95.4411 74.6592 94.5002 73.5001 94.5002H52.5002C51.3411 94.5002 50.4002 95.4411 50.4002 96.6002C50.4002 106.355 46.8681 111.3 39.9002 111.3C38.7411 111.3 37.8002 112.241 37.8002 113.4C37.8002 114.559 38.7411 115.5 39.9002 115.5H86.1001C87.2592 115.5 88.2 114.559 88.2 113.4C88.2 112.241 87.2592 111.3 86.1001 111.3ZM50.1291 111.3C52.7143 108.436 54.2366 104.17 54.5432 98.7001H71.4587C71.7632 104.17 73.2857 108.436 75.8729 111.3H50.1291Z" fill="white"/>
<path d="M100.346 63.9743L95.2772 58.905L98.0974 56.0848C98.6204 55.5618 98.8303 54.8016 98.6496 54.0855C98.469 53.3694 97.9251 52.8024 97.2174 52.5883L76.2175 46.2883C75.4762 46.0655 74.6762 46.2693 74.1301 46.8154C73.582 47.3615 73.3805 48.1635 73.6029 48.9028L79.903 69.9027C80.1151 70.6124 80.6841 71.1563 81.4002 71.3369C82.1141 71.5134 82.8765 71.3074 83.3995 70.7847L86.3688 67.8131L91.4381 72.8846C91.8309 73.2793 92.3664 73.4998 92.9228 73.4998C93.4792 73.4998 94.0147 73.2793 94.4075 72.8846L100.346 66.9436C101.167 66.1227 101.167 64.7955 100.346 63.9743ZM92.9228 68.4305L88.3071 63.8126C87.7716 63.2771 87.0702 63.0103 86.3688 63.0103C85.6652 63.0103 84.9639 63.2791 84.4306 63.8104L82.9144 65.3266L78.7458 51.4309L92.6415 55.5995L91.0161 57.2249C90.5687 57.6743 90.3231 58.2708 90.3231 58.905C90.3231 59.5414 90.5709 60.1419 91.0202 60.587L95.8922 65.459L92.9228 68.4305Z" fill="white"/>
<path d="M88.2 18.8999H29.4001C28.241 18.8999 27.3002 19.8407 27.3002 20.9998V31.4999C27.3002 32.659 28.241 33.5998 29.4001 33.5998H88.2C89.3591 33.5998 90.2999 32.659 90.2999 31.4999V20.9998C90.2999 19.8407 89.3591 18.8999 88.2 18.8999ZM86.1001 29.4H31.5V23.1H86.1001V29.4Z" fill="white"/>
<path d="M54.6001 42H37.8C36.6409 42 35.7001 42.9408 35.7001 44.0999V52.4998C35.7001 53.6589 36.6409 54.5998 37.8 54.5998H54.6001C55.7592 54.5998 56.7 53.6589 56.7 52.4998V44.0999C56.7 42.9408 55.7592 42 54.6001 42ZM52.4999 50.3999H39.8999V46.1998H52.4999V50.3999Z" fill="white"/>
<path d="M88.2 18.8999H29.4001C28.241 18.8999 27.3002 19.8407 27.3002 20.9998V60.8997C27.3002 62.0588 28.241 62.9997 29.4001 62.9997H79.3928C80.0585 62.9997 80.6821 62.6869 81.0771 62.1533C81.474 61.6201 81.5958 60.9312 81.4046 60.2948L78.7461 51.4308L87.5976 54.0874C88.234 54.2786 88.9228 54.1568 89.4539 53.7598C89.9871 53.3651 90.3002 52.7393 90.3002 52.0756V20.9998C90.2999 19.8407 89.3591 18.8999 88.2 18.8999ZM86.1001 49.2534L76.2152 46.2882C75.474 46.0655 74.674 46.2692 74.1279 46.8153C73.5798 47.3633 73.3783 48.1634 73.6007 48.9049L76.5701 58.8001H31.5V23.1H86.1001V49.2534Z" fill="white"/>
</svg>
