<svg width="45" height="45" viewBox="0 0 45 45" fill="none" xmlns="http://www.w3.org/2000/svg">
<g clip-path="url(#clip0)">
<path d="M20.7646 30.5214C21.1082 30.1777 21.1082 29.6215 20.7646 29.2779C20.4206 28.9352 19.8633 28.9352 19.519 29.2779C19.1756 29.6215 19.1756 30.1777 19.519 30.5214C19.8633 30.864 20.4206 30.864 20.7646 30.5214Z" fill="black"/>
<path d="M16.5953 9.66523C16.5953 14.9946 20.9396 19.3308 26.2795 19.3308C31.6193 19.3308 35.9636 14.9946 35.9636 9.66523C35.9636 4.33582 31.6193 0 26.2795 0C20.9396 0 16.5953 4.33582 16.5953 9.66523V9.66523ZM34.203 9.66523C34.203 14.0258 30.6486 17.5733 26.2795 17.5733C21.9104 17.5733 18.3559 14.0258 18.3559 9.66523C18.3559 5.30503 21.9104 1.75747 26.2795 1.75747C30.6486 1.75747 34.203 5.30503 34.203 9.66523Z" fill="black"/>
<path d="M10.1846 44.7401C10.5258 45.0834 11.0814 45.0872 11.4271 44.7473L15.6954 40.5505C16.4205 39.8268 16.641 38.7553 16.3221 37.8239L17.2403 36.9401C17.7346 36.4636 18.3854 36.201 19.0734 36.201H30.7771C32.8535 36.201 34.816 35.4051 36.3038 33.9601C36.365 33.9007 35.839 34.519 44.2882 24.4404C45.5414 22.9607 45.3539 20.7387 43.8699 19.4866C42.3952 18.2462 40.1861 18.4244 38.9295 19.8787L33.7345 25.2078C33.0785 24.402 32.0781 23.8997 30.9973 23.8997H21.18C19.7831 23.3164 18.3008 23.0211 16.7714 23.0211C12.532 23.0211 8.83029 24.9753 6.84372 28.6393C6.00678 28.481 5.12409 28.7337 4.48908 29.3675L0.300946 33.5598C-0.0409847 33.9021 -0.0416727 34.4559 0.29957 34.7992L10.1846 44.7401ZM16.7711 24.7783C18.1195 24.7783 19.4233 25.0492 20.6468 25.5834C20.7583 25.6321 20.8784 25.6572 20.9998 25.6572H30.9973C31.9519 25.6572 32.7582 26.4341 32.7582 27.4143C32.7582 28.3835 31.9684 29.1718 30.9973 29.1718H23.8144C23.3283 29.1718 22.9341 29.5652 22.9341 30.0503C22.9341 30.5358 23.3283 30.9289 23.8144 30.9289H30.9973C32.9392 30.9289 34.5188 29.3524 34.5188 27.4143C34.5188 27.2598 34.5078 27.1067 34.4878 26.9549C39.5132 21.7993 40.2219 21.0748 40.2521 21.0388C40.8796 20.2996 41.9934 20.2059 42.7344 20.8294C43.476 21.4553 43.57 22.5662 42.9408 23.3095L35.0444 32.731C33.8913 33.8358 32.3774 34.4438 30.7771 34.4438H19.0734C17.9265 34.4438 16.8409 34.8816 16.0174 35.6757L15.2692 36.3963L8.37209 29.513C9.98405 26.4949 13.0088 24.7783 16.7711 24.7783V24.7783ZM5.73503 30.6093C6.02536 30.3195 6.47118 30.2673 6.82515 30.4857C6.97754 30.5784 6.53998 30.1808 14.4505 38.0649C14.8024 38.4161 14.7835 38.9757 14.4553 39.3032L10.8165 42.881L2.16608 34.1815L5.73503 30.6093Z" fill="black"/>
<path d="M25.2231 4.39348V5.4231C24.1983 5.78565 23.4622 6.76241 23.4622 7.90808C23.4622 9.36136 24.6469 10.5441 26.1034 10.5441C26.5887 10.5441 26.9836 10.9382 26.9836 11.4227C26.9836 11.9071 26.5887 12.3012 26.1034 12.3012C25.7274 12.3012 25.3211 12.0654 24.9603 11.6366C24.6472 11.2651 24.092 11.2174 23.7198 11.5294C23.3476 11.8419 23.2995 12.396 23.6125 12.7675C24.0831 13.3261 24.6366 13.7154 25.2231 13.9118V14.9373C25.2231 15.4227 25.6173 15.8158 26.1034 15.8158C26.5894 15.8158 26.9836 15.4227 26.9836 14.9373V13.9076C28.0084 13.5448 28.7445 12.568 28.7445 11.4227C28.7445 9.96904 27.5598 8.78664 26.1034 8.78664C25.618 8.78664 25.2231 8.3925 25.2231 7.90808C25.2231 7.42365 25.618 7.02917 26.1034 7.02917C26.4154 7.02917 26.7446 7.18813 27.0555 7.48853C27.405 7.82602 27.9623 7.81675 28.3004 7.46828C28.6386 7.11946 28.6293 6.56328 28.2802 6.22579C27.8333 5.79424 27.3861 5.55013 26.9836 5.41692V4.39348C26.9836 3.90802 26.5894 3.51457 26.1034 3.51457C25.6173 3.51457 25.2231 3.90802 25.2231 4.39348V4.39348Z" fill="black"/>
</g>
<defs>
<clipPath id="clip0">
<rect width="45" height="45" fill="white"/>
</clipPath>
</defs>
</svg>
