<svg width="126" height="126" viewBox="0 0 126 126" fill="none" xmlns="http://www.w3.org/2000/svg">
<path d="M71.6378 18.4226H78.74C79.7596 18.4226 80.5857 17.5964 80.5857 16.5769C80.5857 15.5573 79.7596 14.7312 78.74 14.7312H73.4835V11.057H78.74C79.7596 11.057 80.5857 10.2309 80.5857 9.21129C80.5857 8.19172 79.7596 7.36559 78.74 7.36559H73.4835V3.69141H78.74C79.7596 3.69141 80.5857 2.86527 80.5857 1.8457C80.5857 0.826137 79.7596 0 78.74 0H71.6378C70.6182 0 69.7921 0.826137 69.7921 1.8457V16.5769C69.7921 17.5964 70.6184 18.4226 71.6378 18.4226Z" fill="white"/>
<path d="M57.1812 3.69141H59.0097V16.5769C59.0097 17.5964 59.8358 18.4226 60.8554 18.4226C61.875 18.4226 62.7011 17.5964 62.7011 16.5769V3.69141H64.5298C65.5494 3.69141 66.3755 2.86527 66.3755 1.8457C66.3755 0.826137 65.5494 0 64.5298 0H57.1815C56.1619 0 55.3358 0.826137 55.3358 1.8457C55.3358 2.86527 56.1619 3.69141 57.1812 3.69141Z" fill="white"/>
<path d="M42.944 18.4226H50.2923C51.3119 18.4226 52.138 17.5964 52.138 16.5769V1.8457C52.138 0.826137 51.3119 0 50.2923 0H42.944C41.9244 0 41.0983 0.826137 41.0983 1.8457V16.5769C41.0983 17.5964 41.9244 18.4226 42.944 18.4226ZM44.7897 3.69141H48.4466V14.7312H44.7897V3.69141Z" fill="white"/>
<path d="M102.755 114.938H95.1055V32.9241C97.9821 32.1187 100.097 29.4786 100.097 26.3547C100.097 24.0165 98.1917 22.1142 95.8494 22.1142H95.1055V16.5771C95.1055 15.5576 94.2794 14.7314 93.2598 14.7314H88.0032V1.8457C88.0032 0.826137 87.1771 0 86.1575 0C85.138 0 84.3118 0.826137 84.3118 1.8457V16.5769C84.3118 17.5964 85.138 18.4226 86.1575 18.4226H91.4141V22.114H30.024V11.057H33.681V16.5769C33.681 17.5964 34.5071 18.4226 35.5267 18.4226C36.5463 18.4226 37.3724 17.5964 37.3724 16.5769V1.8457C37.3724 0.826137 36.5463 0 35.5267 0C34.5071 0 33.681 0.826137 33.681 1.8457V7.36583H30.024V1.8457C30.024 0.826137 29.1979 0 28.1783 0C27.1588 0 26.3326 0.826137 26.3326 1.8457V22.114H25.5887C23.2464 22.114 21.3409 24.0163 21.3409 26.3544C21.3409 29.4783 23.456 32.1184 26.3326 32.9239V114.937H17.2525C14.9077 114.937 13 116.84 13 119.178C13 122.94 16.0715 126 19.8473 126H100.16C103.936 126 107.008 122.94 107.008 119.178C107.008 116.84 105.1 114.938 102.755 114.938ZM100.16 122.309H19.8473C18.1072 122.309 16.6914 120.904 16.6914 119.178C16.6914 118.875 16.9429 118.629 17.2525 118.629H76.7191C77.7387 118.629 78.5648 117.803 78.5648 116.783C78.5648 115.764 77.7387 114.938 76.7191 114.938H67.4864V83.0114C67.4864 81.9918 66.6603 81.1657 65.6407 81.1657H55.7969C54.7774 81.1657 53.9512 81.9918 53.9512 83.0114V114.937H30.0238V33.2027H36.7608C37.7804 33.2027 38.6065 32.3766 38.6065 31.357C38.6065 30.3375 37.7804 29.5113 36.7608 29.5113H28.1781V29.4855C26.4434 29.4855 25.032 28.081 25.032 26.3547C25.032 26.052 25.2818 25.8056 25.5884 25.8056H95.8494C96.1563 25.8056 96.4058 26.052 96.4058 26.3547C96.4058 28.081 94.9945 29.4855 93.2598 29.4855V29.5113H45.4086C44.389 29.5113 43.5629 30.3375 43.5629 31.357C43.5629 32.3766 44.389 33.2027 45.4086 33.2027H91.4138V114.938H85.3245C84.3049 114.938 83.4788 115.764 83.4788 116.783C83.4788 117.803 84.3049 118.629 85.3245 118.629H102.755C103.065 118.629 103.316 118.875 103.316 119.178C103.316 120.904 101.901 122.309 100.16 122.309ZM63.795 88.5485H57.6426V84.8571H63.795V88.5485ZM57.6426 92.2399H63.795V114.937H57.6426V92.2399Z" fill="white"/>
<path d="M45.4086 36.9246H35.5648C34.5453 36.9246 33.7191 37.7507 33.7191 38.7703V53.5359C33.7191 54.5555 34.5453 55.3816 35.5648 55.3816H45.4086C46.4281 55.3816 47.2543 54.5555 47.2543 53.5359V38.7703C47.2543 37.7507 46.4281 36.9246 45.4086 36.9246ZM43.5629 40.616V44.3074H37.4105V40.616H43.5629ZM37.4105 51.6902V47.9988H43.5629V51.6902H37.4105Z" fill="white"/>
<path d="M45.4086 59.033H35.5648C34.5453 59.033 33.7191 59.8591 33.7191 60.8787V75.6443C33.7191 76.6639 34.5453 77.49 35.5648 77.49H45.4086C46.4281 77.49 47.2543 76.6639 47.2543 75.6443V60.8787C47.2543 59.8591 46.4281 59.033 45.4086 59.033ZM43.5629 62.7244V66.4158H37.4105V62.7244H43.5629ZM37.4105 73.7986V70.1072H43.5629V73.7986H37.4105Z" fill="white"/>
<path d="M45.4086 81.1658H35.5648C34.5453 81.1658 33.7191 81.9919 33.7191 83.0115V105.598C33.7191 106.618 34.5453 107.444 35.5648 107.444H45.4086C46.4281 107.444 47.2543 106.618 47.2543 105.598V83.0115C47.2543 81.9922 46.4281 81.1658 45.4086 81.1658ZM43.5629 84.8572V88.5486H37.4105V84.8572H43.5629ZM37.4105 103.753V92.2402H43.5629V103.753H37.4105Z" fill="white"/>
<path d="M65.6407 36.9246H55.7969C54.7774 36.9246 53.9512 37.7507 53.9512 38.7703V53.5359C53.9512 54.5555 54.7774 55.3816 55.7969 55.3816H65.6407C66.6603 55.3816 67.4864 54.5555 67.4864 53.5359V38.7703C67.4864 37.7507 66.6603 36.9246 65.6407 36.9246ZM63.795 40.616V44.3074H57.6426V40.616H63.795ZM57.6426 51.6902V47.9988H63.795V51.6902H57.6426Z" fill="white"/>
<path d="M65.6407 59.033H55.7969C54.7774 59.033 53.9512 59.8591 53.9512 60.8787V75.6443C53.9512 76.6639 54.7774 77.49 55.7969 77.49H65.6407C66.6603 77.49 67.4864 76.6639 67.4864 75.6443V60.8787C67.4864 59.8591 66.6603 59.033 65.6407 59.033ZM63.795 62.7244V66.4158H57.6426V62.7244H63.795ZM57.6426 73.7986V70.1072H63.795V73.7986H57.6426Z" fill="white"/>
<path d="M76.0997 55.3816H85.9434C86.963 55.3816 87.7891 54.5555 87.7891 53.5359V38.7703C87.7891 37.7507 86.963 36.9246 85.9434 36.9246H76.0997C75.0801 36.9246 74.254 37.7507 74.254 38.7703V53.5359C74.254 54.5555 75.0804 55.3816 76.0997 55.3816ZM77.9454 51.6902V47.9988H84.0977V51.6902H77.9454ZM84.0977 40.616V44.3074H77.9454V40.616H84.0977Z" fill="white"/>
<path d="M76.0997 77.49H85.9434C86.963 77.49 87.7891 76.6639 87.7891 75.6443V60.8787C87.7891 59.8591 86.963 59.033 85.9434 59.033H76.0997C75.0801 59.033 74.254 59.8591 74.254 60.8787V75.6443C74.254 76.6636 75.0804 77.49 76.0997 77.49ZM77.9454 73.7986V70.1072H84.0977V73.7986H77.9454ZM84.0977 62.7244V66.4158H77.9454V62.7244H84.0977Z" fill="white"/>
<path d="M87.7891 105.599V83.0117C87.7891 81.9922 86.963 81.166 85.9434 81.166H76.0997C75.0801 81.166 74.254 81.9922 74.254 83.0117V105.599C74.254 106.618 75.0801 107.444 76.0997 107.444H85.9434C86.963 107.444 87.7891 106.618 87.7891 105.599ZM84.0977 84.8572V88.5486H77.9454V84.8572H84.0977ZM77.9454 103.753V92.2402H84.0977V103.753H77.9454Z" fill="white"/>
</svg>
