<svg width="80" height="80" viewBox="0 0 80 80" fill="none" xmlns="http://www.w3.org/2000/svg">
<path d="M58.3446 0H21.6552C9.71434 0 0 9.71434 0 21.6552V58.3452C0 70.2855 9.71434 79.9998 21.6552 79.9998H58.3452C70.2855 79.9998 79.9998 70.2855 79.9998 58.3452V21.6552C79.9998 9.71434 70.2855 0 58.3446 0V0ZM75.3099 58.3452C75.3099 67.6995 67.6995 75.3099 58.3446 75.3099H21.6552C12.3004 75.3099 4.68993 67.6995 4.68993 58.3452V21.6552C4.68993 12.3004 12.3004 4.68993 21.6552 4.68993H58.3452C67.6995 4.68993 75.3099 12.3004 75.3099 21.6552V58.3452Z" fill="#7D7053"/>
<path d="M39.9999 18.1255C27.9382 18.1255 18.1255 27.9382 18.1255 39.9999C18.1255 52.0616 27.9382 61.8742 39.9999 61.8742C52.0616 61.8742 61.8742 52.0616 61.8742 39.9999C61.8742 27.9382 52.0616 18.1255 39.9999 18.1255ZM39.9999 57.1843C30.5248 57.1843 22.8155 49.4756 22.8155 39.9999C22.8155 30.5248 30.5248 22.8155 39.9999 22.8155C49.4756 22.8155 57.1843 30.5248 57.1843 39.9999C57.1843 49.4756 49.4756 57.1843 39.9999 57.1843Z" fill="#7D7053"/>
<path d="M62.3973 10.3571C58.8329 10.3571 55.9337 13.2568 55.9337 16.8207C55.9337 20.3851 58.8329 23.2849 62.3973 23.2849C65.9618 23.2849 68.8615 20.3851 68.8615 16.8207C68.8615 13.2562 65.9618 10.3571 62.3973 10.3571ZM62.3973 18.5943C61.4195 18.5943 60.6236 17.7984 60.6236 16.8207C60.6236 15.8423 61.4195 15.047 62.3973 15.047C63.3757 15.047 64.1716 15.8423 64.1716 16.8207C64.1716 17.7984 63.3757 18.5943 62.3973 18.5943Z" fill="#7D7053"/>
</svg>
