<svg width="58" height="58" viewBox="0 0 58 58" fill="none" xmlns="http://www.w3.org/2000/svg">
<path d="M41.0078 0H16.9922C7.6227 0 0 7.6227 0 16.9922V41.0078C0 50.3773 7.6227 58 16.9922 58H41.0078C50.3773 58 58 50.3773 58 41.0078V16.9922C58 7.6227 50.3773 0 41.0078 0ZM55.7344 41.0078C55.7344 49.128 49.128 55.7344 41.0078 55.7344H16.9922C8.87196 55.7344 2.26562 49.128 2.26562 41.0078V16.9922C2.26562 8.87196 8.87196 2.26562 16.9922 2.26562H41.0078C49.128 2.26562 55.7344 8.87196 55.7344 16.9922V41.0078Z" fill="black"/>
<path d="M41.0078 4.98438H16.9922C10.371 4.98438 4.98438 10.371 4.98438 16.9922V41.0078C4.98438 47.629 10.371 53.0156 16.9922 53.0156H23.9023C24.528 53.0156 25.0352 52.5085 25.0352 51.8828C25.0352 51.2572 24.528 50.75 23.9023 50.75H16.9922C11.6204 50.75 7.25 46.3796 7.25 41.0078V16.9922C7.25 11.6204 11.6204 7.25 16.9922 7.25H41.0078C46.3796 7.25 50.75 11.6204 50.75 16.9922V41.0078C50.75 46.3796 46.3796 50.75 41.0078 50.75H34.1732C33.5476 50.75 33.0404 51.2572 33.0404 51.8828C33.0404 52.5085 33.5476 53.0156 34.1732 53.0156H41.0078C47.629 53.0156 53.0156 47.629 53.0156 41.0078V16.9922C53.0156 10.371 47.629 4.98438 41.0078 4.98438Z" fill="black"/>
<path d="M29.8009 51.0819C29.5902 50.8712 29.2979 50.75 29 50.75C28.7021 50.75 28.4098 50.8712 28.1991 51.0819C27.9884 51.2926 27.8672 51.5849 27.8672 51.8828C27.8672 52.1807 27.9884 52.473 28.1991 52.6837C28.4098 52.8944 28.7021 53.0156 29 53.0156C29.2979 53.0156 29.5902 52.8944 29.8009 52.6837C30.0116 52.473 30.1328 52.1807 30.1328 51.8828C30.1328 51.5849 30.0116 51.2926 29.8009 51.0819Z" fill="black"/>
<path d="M19.9182 17.639C19.4903 17.1825 18.7736 17.1592 18.317 17.5868L18.2668 17.6341C17.8117 18.0634 17.7909 18.7803 18.2203 19.2354C18.4431 19.4716 18.7435 19.5908 19.0444 19.5908C19.3233 19.5908 19.6028 19.4884 19.8217 19.2818L19.866 19.2403C20.3225 18.8125 20.3459 18.0956 19.9182 17.639Z" fill="black"/>
<path d="M29 13.3672C26.5119 13.3672 24.0356 13.9666 21.8387 15.1005C21.2828 15.3874 21.0648 16.0708 21.3517 16.6267C21.6388 17.1826 22.3221 17.4006 22.8779 17.1137C24.7816 16.131 26.8414 15.6328 29 15.6328C36.3706 15.6328 42.3672 21.6294 42.3672 29C42.3672 36.3706 36.3706 42.3672 29 42.3672C21.6294 42.3672 15.6328 36.3706 15.6328 29C15.6328 26.6869 16.2326 24.4079 17.3675 22.4095C17.6764 21.8655 17.4859 21.1741 16.9418 20.865C16.3977 20.5562 15.7063 20.7467 15.3973 21.2908C14.0692 23.6296 13.3672 26.2954 13.3672 29C13.3672 37.6199 20.3801 44.6328 29 44.6328C37.6199 44.6328 44.6328 37.6199 44.6328 29C44.6328 20.3801 37.6199 13.3672 29 13.3672Z" fill="black"/>
<path d="M29 18.8047C23.3783 18.8047 18.8047 23.3783 18.8047 29C18.8047 34.6217 23.3783 39.1953 29 39.1953C34.6217 39.1953 39.1953 34.6217 39.1953 29C39.1953 23.3783 34.6217 18.8047 29 18.8047ZM29 36.9297C24.6276 36.9297 21.0703 33.3724 21.0703 29C21.0703 24.6276 24.6276 21.0703 29 21.0703C33.3724 21.0703 36.9297 24.6276 36.9297 29C36.9297 33.3724 33.3724 36.9297 29 36.9297Z" fill="black"/>
<path d="M43.8682 9.82715C41.4946 9.82715 39.5635 11.7583 39.5635 14.1318C39.5635 16.5054 41.4946 18.4365 43.8682 18.4365C46.2417 18.4365 48.1729 16.5054 48.1729 14.1318C48.1729 11.7583 46.2417 9.82715 43.8682 9.82715ZM43.8682 16.1709C42.7438 16.1709 41.8291 15.2562 41.8291 14.1318C41.8291 13.0075 42.7438 12.0928 43.8682 12.0928C44.9925 12.0928 45.9072 13.0075 45.9072 14.1318C45.9072 15.2562 44.9925 16.1709 43.8682 16.1709Z" fill="black"/>
</svg>
