<svg width="58" height="58" viewBox="0 0 58 58" fill="none" xmlns="http://www.w3.org/2000/svg">
<path d="M29 0C17.0073 0 7.25 9.75729 7.25 21.75C7.25 32.979 25.108 54.6928 27.1452 57.1324C27.6044 57.6822 28.2835 58 29 58C29.7165 58 30.3956 57.6822 30.8548 57.1324C32.892 54.6928 50.75 32.979 50.75 21.75C50.75 9.75729 40.9927 0 29 0ZM29 51.7505C22.9849 44.1767 12.0833 28.9565 12.0833 21.75C12.0833 12.4217 19.6717 4.83333 29 4.83333C38.3283 4.83333 45.9167 12.4217 45.9167 21.75C45.9167 28.9565 35.0151 44.1767 29 51.7505Z" fill="black"/>
<path d="M29 9.66675C22.3373 9.66675 16.9167 15.0873 16.9167 21.7501C16.9167 28.4128 22.3373 33.8334 29 33.8334C32.2843 33.8334 35.3559 32.5381 37.6493 30.1867C38.5809 29.2309 38.5616 27.7011 37.607 26.7695C36.6512 25.8379 35.1214 25.856 34.1898 26.8118C32.8135 28.2231 30.9708 29.0001 29 29.0001C25.0016 29.0001 21.75 25.7485 21.75 21.7501C21.75 17.7517 25.0016 14.5001 29 14.5001C32.9984 14.5001 36.25 17.7517 36.25 21.7501C36.25 23.0841 37.3327 24.1667 38.6667 24.1667C40.0007 24.1667 41.0834 23.0841 41.0834 21.7501C41.0834 15.0873 35.6628 9.66675 29 9.66675Z" fill="black"/>
</svg>
