<svg width="645" height="175" viewBox="0 0 645 175" fill="none" xmlns="http://www.w3.org/2000/svg">
<path d="M0.5 81.4999C108.1 133.1 193.667 82.3332 223 50.4999C253.667 31.1666 317.2 1.39991 326 36.9999C334.8 72.5999 407.333 124.5 442.5 146C453.167 154.667 483.3 166.8 518.5 146C553.7 125.2 601.5 64.6666 621 36.9999" stroke="#CDB889"/>
<path d="M0.5 80.0001C14.8333 75.6668 44.7 70.4001 49.5 84.0001C55.5 101 57 142.5 94 139.5C131 136.5 240.5 46.0002 235.5 27.0002C230.5 8.00022 308.5 -19.9998 349.5 27.0002C390.5 74.0002 405.5 192.5 442.5 171C479.5 149.5 488.5 70 540 94.5C591.5 119 626.5 160 644 113" stroke="#CDB889"/>
<path d="M2 82.9999C9.33333 55.4999 30.2 6.89989 55 32.4999C86 64.4999 151.5 188.5 232 155.5C312.5 122.5 258.5 16.4998 314.5 32.4999C370.5 48.5 439 2.99979 471.5 82.9999C497.5 147 533 163 547.5 163C543.333 170.333 538.5 179.1 552.5 155.5" stroke="#CDB889"/>
</svg>
