<svg width="57" height="57" viewBox="0 0 57 57" fill="none" xmlns="http://www.w3.org/2000/svg">
<g clip-path="url(#clip0)">
<path d="M51.7484 7.125H6.23444C3.3385 7.125 0.982788 9.52204 0.982788 12.4688V44.5313C0.982788 47.478 3.3385 49.8751 6.23444 49.8751H51.7484C54.6443 49.8751 57 47.478 57 44.5313V12.4688C57 9.52204 54.6443 7.125 51.7484 7.125ZM51.7484 10.6875C51.9862 10.6875 52.2125 10.7377 52.4193 10.8254L28.9914 31.4868L5.56337 10.8254C5.77022 10.7378 5.99648 10.6875 6.23432 10.6875H51.7484ZM51.7484 46.3125H6.23444C5.26858 46.3125 4.48385 45.5141 4.48385 44.5312V14.5892L27.8443 35.1901C28.1743 35.4806 28.5828 35.625 28.9914 35.625C29.4 35.625 29.8085 35.4807 30.1385 35.1901L53.499 14.5892V44.5313C53.4988 45.5141 52.7142 46.3125 51.7484 46.3125Z" fill="#FFF3F3"/>
</g>
<defs>
<clipPath id="clip0">
<rect width="57" height="57" fill="white"/>
</clipPath>
</defs>
</svg>
