<svg xmlns="http://www.w3.org/2000/svg" version="1.1" xmlns:xlink="http://www.w3.org/1999/xlink" xmlns:svgjs="http://svgjs.com/svgjs" width="1920" height="5600" preserveAspectRatio="none" viewBox="0 0 1920 5600"><g mask="url(&quot;#SvgjsMask1034&quot;)" fill="none"><path d="M470 470L1528 -588" stroke-width="6" stroke="url(#SvgjsLinearGradient1035)" stroke-linecap="round" class="BottomLeft"></path><path d="M184 1182L-1157 2523" stroke-width="8" stroke="url(#SvgjsLinearGradient1036)" stroke-linecap="round" class="TopRight"></path><path d="M106 2137L1511 732" stroke-width="10" stroke="url(#SvgjsLinearGradient1035)" stroke-linecap="round" class="BottomLeft"></path><path d="M1708 4912L1108 5512" stroke-width="10" stroke="url(#SvgjsLinearGradient1035)" stroke-linecap="round" class="BottomLeft"></path><path d="M696 292L126 862" stroke-width="8" stroke="url(#SvgjsLinearGradient1036)" stroke-linecap="round" class="TopRight"></path><path d="M1128 453L-227 1808" stroke-width="8" stroke="url(#SvgjsLinearGradient1035)" stroke-linecap="round" class="BottomLeft"></path><path d="M1150 399L2576 -1027" stroke-width="8" stroke="url(#SvgjsLinearGradient1035)" stroke-linecap="round" class="BottomLeft"></path><path d="M1761 4643L955 5449" stroke-width="8" stroke="url(#SvgjsLinearGradient1035)" stroke-linecap="round" class="BottomLeft"></path><path d="M99 3623L778 2944" stroke-width="10" stroke="url(#SvgjsLinearGradient1036)" stroke-linecap="round" class="TopRight"></path><path d="M1463 4928L2554 3837" stroke-width="8" stroke="url(#SvgjsLinearGradient1036)" stroke-linecap="round" class="TopRight"></path><path d="M561 1320L1661 220" stroke-width="10" stroke="url(#SvgjsLinearGradient1036)" stroke-linecap="round" class="TopRight"></path><path d="M1039 4530L-173 5742" stroke-width="8" stroke="url(#SvgjsLinearGradient1035)" stroke-linecap="round" class="BottomLeft"></path><path d="M1100 3998L39 5059" stroke-width="6" stroke="url(#SvgjsLinearGradient1035)" stroke-linecap="round" class="BottomLeft"></path><path d="M548 1437L1353 632" stroke-width="10" stroke="url(#SvgjsLinearGradient1036)" stroke-linecap="round" class="TopRight"></path><path d="M500 2586L-660 3746" stroke-width="6" stroke="url(#SvgjsLinearGradient1035)" stroke-linecap="round" class="BottomLeft"></path><path d="M1296 2304L2457 1143" stroke-width="8" stroke="url(#SvgjsLinearGradient1036)" stroke-linecap="round" class="TopRight"></path><path d="M1484 3976L2579 2881" stroke-width="8" stroke="url(#SvgjsLinearGradient1035)" stroke-linecap="round" class="BottomLeft"></path><path d="M1098 4576L284 5390" stroke-width="8" stroke="url(#SvgjsLinearGradient1035)" stroke-linecap="round" class="BottomLeft"></path><path d="M716 1623L1385 954" stroke-width="10" stroke="url(#SvgjsLinearGradient1036)" stroke-linecap="round" class="TopRight"></path><path d="M1648 782L3035 -605" stroke-width="10" stroke="url(#SvgjsLinearGradient1036)" stroke-linecap="round" class="TopRight"></path><path d="M1718 4182L424 5476" stroke-width="8" stroke="url(#SvgjsLinearGradient1035)" stroke-linecap="round" class="BottomLeft"></path><path d="M1793 3293L1128 3958" stroke-width="8" stroke="url(#SvgjsLinearGradient1035)" stroke-linecap="round" class="BottomLeft"></path><path d="M453 5338L1144 4647" stroke-width="6" stroke="url(#SvgjsLinearGradient1036)" stroke-linecap="round" class="TopRight"></path><path d="M625 4270L33 4862" stroke-width="8" stroke="url(#SvgjsLinearGradient1036)" stroke-linecap="round" class="TopRight"></path><path d="M1072 1382L2011 443" stroke-width="10" stroke="url(#SvgjsLinearGradient1036)" stroke-linecap="round" class="TopRight"></path><path d="M1622 234L2126 -270" stroke-width="10" stroke="url(#SvgjsLinearGradient1036)" stroke-linecap="round" class="TopRight"></path><path d="M231 4587L-521 5339" stroke-width="8" stroke="url(#SvgjsLinearGradient1035)" stroke-linecap="round" class="BottomLeft"></path><path d="M1674 1040L2696 18" stroke-width="10" stroke="url(#SvgjsLinearGradient1036)" stroke-linecap="round" class="TopRight"></path><path d="M80 3606L-907 4593" stroke-width="6" stroke="url(#SvgjsLinearGradient1036)" stroke-linecap="round" class="TopRight"></path><path d="M683 4085L-505 5273" stroke-width="10" stroke="url(#SvgjsLinearGradient1035)" stroke-linecap="round" class="BottomLeft"></path><path d="M167 2925L-512 3604" stroke-width="10" stroke="url(#SvgjsLinearGradient1035)" stroke-linecap="round" class="BottomLeft"></path><path d="M815 4100L86 4829" stroke-width="6" stroke="url(#SvgjsLinearGradient1036)" stroke-linecap="round" class="TopRight"></path><path d="M1853 4736L3250 3339" stroke-width="10" stroke="url(#SvgjsLinearGradient1036)" stroke-linecap="round" class="TopRight"></path><path d="M1645 3709L2208 3146" stroke-width="8" stroke="url(#SvgjsLinearGradient1036)" stroke-linecap="round" class="TopRight"></path><path d="M203 4933L920 4216" stroke-width="6" stroke="url(#SvgjsLinearGradient1036)" stroke-linecap="round" class="TopRight"></path><path d="M574 2137L-589 3300" stroke-width="10" stroke="url(#SvgjsLinearGradient1035)" stroke-linecap="round" class="BottomLeft"></path><path d="M608 2732L-784 4124" stroke-width="10" stroke="url(#SvgjsLinearGradient1035)" stroke-linecap="round" class="BottomLeft"></path><path d="M1881 4253L442 5692" stroke-width="6" stroke="url(#SvgjsLinearGradient1035)" stroke-linecap="round" class="BottomLeft"></path><path d="M439 4671L1571 3539" stroke-width="6" stroke="url(#SvgjsLinearGradient1036)" stroke-linecap="round" class="TopRight"></path><path d="M1715 3142L1086 3771" stroke-width="6" stroke="url(#SvgjsLinearGradient1036)" stroke-linecap="round" class="TopRight"></path><path d="M913 743L1781 -125" stroke-width="10" stroke="url(#SvgjsLinearGradient1036)" stroke-linecap="round" class="TopRight"></path><path d="M767 3153L1840 2080" stroke-width="6" stroke="url(#SvgjsLinearGradient1036)" stroke-linecap="round" class="TopRight"></path><path d="M367 4529L-192 5088" stroke-width="6" stroke="url(#SvgjsLinearGradient1035)" stroke-linecap="round" class="BottomLeft"></path><path d="M527 720L-431 1678" stroke-width="10" stroke="url(#SvgjsLinearGradient1036)" stroke-linecap="round" class="TopRight"></path><path d="M1747 4749L2355 4141" stroke-width="6" stroke="url(#SvgjsLinearGradient1035)" stroke-linecap="round" class="BottomLeft"></path><path d="M72 192L-426 690" stroke-width="8" stroke="url(#SvgjsLinearGradient1035)" stroke-linecap="round" class="BottomLeft"></path><path d="M695 3694L105 4284" stroke-width="10" stroke="url(#SvgjsLinearGradient1036)" stroke-linecap="round" class="TopRight"></path><path d="M1792 4612L951 5453" stroke-width="8" stroke="url(#SvgjsLinearGradient1036)" stroke-linecap="round" class="TopRight"></path><path d="M1352 272L461 1163" stroke-width="6" stroke="url(#SvgjsLinearGradient1036)" stroke-linecap="round" class="TopRight"></path><path d="M427 1190L-989 2606" stroke-width="8" stroke="url(#SvgjsLinearGradient1036)" stroke-linecap="round" class="TopRight"></path><path d="M101 5303L953 4451" stroke-width="8" stroke="url(#SvgjsLinearGradient1036)" stroke-linecap="round" class="TopRight"></path><path d="M358 3413L-190 3961" stroke-width="6" stroke="url(#SvgjsLinearGradient1035)" stroke-linecap="round" class="BottomLeft"></path><path d="M999 1471L1946 524" stroke-width="10" stroke="url(#SvgjsLinearGradient1035)" stroke-linecap="round" class="BottomLeft"></path><path d="M716 5093L-318 6127" stroke-width="6" stroke="url(#SvgjsLinearGradient1035)" stroke-linecap="round" class="BottomLeft"></path><path d="M1582 2424L2141 1865" stroke-width="8" stroke="url(#SvgjsLinearGradient1035)" stroke-linecap="round" class="BottomLeft"></path><path d="M1310 3026L2569 1767" stroke-width="6" stroke="url(#SvgjsLinearGradient1035)" stroke-linecap="round" class="BottomLeft"></path><path d="M643 1005L156 1492" stroke-width="6" stroke="url(#SvgjsLinearGradient1036)" stroke-linecap="round" class="TopRight"></path><path d="M1407 5139L2475 4071" stroke-width="6" stroke="url(#SvgjsLinearGradient1035)" stroke-linecap="round" class="BottomLeft"></path><path d="M742 4762L-233 5737" stroke-width="10" stroke="url(#SvgjsLinearGradient1035)" stroke-linecap="round" class="BottomLeft"></path><path d="M809 50L1999 -1140" stroke-width="8" stroke="url(#SvgjsLinearGradient1036)" stroke-linecap="round" class="TopRight"></path><path d="M845 2319L1424 1740" stroke-width="8" stroke="url(#SvgjsLinearGradient1035)" stroke-linecap="round" class="BottomLeft"></path><path d="M1594 4695L2547 3742" stroke-width="10" stroke="url(#SvgjsLinearGradient1036)" stroke-linecap="round" class="TopRight"></path><path d="M1390 2991L2652 1729" stroke-width="8" stroke="url(#SvgjsLinearGradient1036)" stroke-linecap="round" class="TopRight"></path><path d="M1220 3900L2514 2606" stroke-width="6" stroke="url(#SvgjsLinearGradient1035)" stroke-linecap="round" class="BottomLeft"></path><path d="M1650 2167L3045 772" stroke-width="10" stroke="url(#SvgjsLinearGradient1035)" stroke-linecap="round" class="BottomLeft"></path><path d="M95 2871L1396 1570" stroke-width="10" stroke="url(#SvgjsLinearGradient1036)" stroke-linecap="round" class="TopRight"></path><path d="M255 2905L-762 3922" stroke-width="10" stroke="url(#SvgjsLinearGradient1035)" stroke-linecap="round" class="BottomLeft"></path><path d="M1192 595L338 1449" stroke-width="6" stroke="url(#SvgjsLinearGradient1036)" stroke-linecap="round" class="TopRight"></path><path d="M973 832L2099 -294" stroke-width="10" stroke="url(#SvgjsLinearGradient1036)" stroke-linecap="round" class="TopRight"></path><path d="M779 1539L2086 232" stroke-width="6" stroke="url(#SvgjsLinearGradient1036)" stroke-linecap="round" class="TopRight"></path><path d="M109 5219L1386 3942" stroke-width="6" stroke="url(#SvgjsLinearGradient1035)" stroke-linecap="round" class="BottomLeft"></path><path d="M1811 3463L950 4324" stroke-width="8" stroke="url(#SvgjsLinearGradient1035)" stroke-linecap="round" class="BottomLeft"></path><path d="M507 1417L-668 2592" stroke-width="6" stroke="url(#SvgjsLinearGradient1035)" stroke-linecap="round" class="BottomLeft"></path><path d="M1820 3393L2513 2700" stroke-width="10" stroke="url(#SvgjsLinearGradient1035)" stroke-linecap="round" class="BottomLeft"></path><path d="M1650 2680L2648 1682" stroke-width="8" stroke="url(#SvgjsLinearGradient1035)" stroke-linecap="round" class="BottomLeft"></path><path d="M219 128L1496 -1149" stroke-width="8" stroke="url(#SvgjsLinearGradient1035)" stroke-linecap="round" class="BottomLeft"></path><path d="M1104 1253L-159 2516" stroke-width="6" stroke="url(#SvgjsLinearGradient1035)" stroke-linecap="round" class="BottomLeft"></path><path d="M684 5272L1252 4704" stroke-width="8" stroke="url(#SvgjsLinearGradient1035)" stroke-linecap="round" class="BottomLeft"></path><path d="M1742 83L2407 -582" stroke-width="6" stroke="url(#SvgjsLinearGradient1036)" stroke-linecap="round" class="TopRight"></path><path d="M463 4029L-846 5338" stroke-width="6" stroke="url(#SvgjsLinearGradient1036)" stroke-linecap="round" class="TopRight"></path><path d="M289 3105L-1019 4413" stroke-width="10" stroke="url(#SvgjsLinearGradient1035)" stroke-linecap="round" class="BottomLeft"></path><path d="M1439 4891L802 5528" stroke-width="6" stroke="url(#SvgjsLinearGradient1035)" stroke-linecap="round" class="BottomLeft"></path><path d="M138 4671L1313 3496" stroke-width="6" stroke="url(#SvgjsLinearGradient1035)" stroke-linecap="round" class="BottomLeft"></path><path d="M64 1651L861 854" stroke-width="8" stroke="url(#SvgjsLinearGradient1036)" stroke-linecap="round" class="TopRight"></path><path d="M1431 4118L627 4922" stroke-width="6" stroke="url(#SvgjsLinearGradient1035)" stroke-linecap="round" class="BottomLeft"></path><path d="M1341 61L2094 -692" stroke-width="10" stroke="url(#SvgjsLinearGradient1036)" stroke-linecap="round" class="TopRight"></path><path d="M1695 3017L723 3989" stroke-width="10" stroke="url(#SvgjsLinearGradient1036)" stroke-linecap="round" class="TopRight"></path><path d="M760 3858L-492 5110" stroke-width="6" stroke="url(#SvgjsLinearGradient1036)" stroke-linecap="round" class="TopRight"></path><path d="M416 4610L-98 5124" stroke-width="6" stroke="url(#SvgjsLinearGradient1036)" stroke-linecap="round" class="TopRight"></path><path d="M801 2763L1984 1580" stroke-width="8" stroke="url(#SvgjsLinearGradient1036)" stroke-linecap="round" class="TopRight"></path><path d="M199 4630L1639 3190" stroke-width="8" stroke="url(#SvgjsLinearGradient1035)" stroke-linecap="round" class="BottomLeft"></path><path d="M920 1551L2012 459" stroke-width="6" stroke="url(#SvgjsLinearGradient1036)" stroke-linecap="round" class="TopRight"></path><path d="M1681 5291L2922 4050" stroke-width="8" stroke="url(#SvgjsLinearGradient1035)" stroke-linecap="round" class="BottomLeft"></path><path d="M209 5347L-944 6500" stroke-width="10" stroke="url(#SvgjsLinearGradient1036)" stroke-linecap="round" class="TopRight"></path><path d="M1521 4729L2740 3510" stroke-width="10" stroke="url(#SvgjsLinearGradient1035)" stroke-linecap="round" class="BottomLeft"></path><path d="M1752 5362L396 6718" stroke-width="10" stroke="url(#SvgjsLinearGradient1036)" stroke-linecap="round" class="TopRight"></path><path d="M958 2119L1613 1464" stroke-width="6" stroke="url(#SvgjsLinearGradient1036)" stroke-linecap="round" class="TopRight"></path><path d="M629 5534L-183 6346" stroke-width="6" stroke="url(#SvgjsLinearGradient1035)" stroke-linecap="round" class="BottomLeft"></path><path d="M121 2231L-1301 3653" stroke-width="6" stroke="url(#SvgjsLinearGradient1035)" stroke-linecap="round" class="BottomLeft"></path><path d="M1487 4754L750 5491" stroke-width="6" stroke="url(#SvgjsLinearGradient1035)" stroke-linecap="round" class="BottomLeft"></path><path d="M1695 1178L400 2473" stroke-width="6" stroke="url(#SvgjsLinearGradient1036)" stroke-linecap="round" class="TopRight"></path><path d="M798 5526L-252 6576" stroke-width="10" stroke="url(#SvgjsLinearGradient1036)" stroke-linecap="round" class="TopRight"></path><path d="M689 2080L1482 1287" stroke-width="6" stroke="url(#SvgjsLinearGradient1036)" stroke-linecap="round" class="TopRight"></path><path d="M1052 2589L1590 2051" stroke-width="6" stroke="url(#SvgjsLinearGradient1035)" stroke-linecap="round" class="BottomLeft"></path><path d="M1078 1544L17 2605" stroke-width="10" stroke="url(#SvgjsLinearGradient1036)" stroke-linecap="round" class="TopRight"></path><path d="M1240 2346L561 3025" stroke-width="10" stroke="url(#SvgjsLinearGradient1036)" stroke-linecap="round" class="TopRight"></path><path d="M1890 1307L2516 681" stroke-width="6" stroke="url(#SvgjsLinearGradient1036)" stroke-linecap="round" class="TopRight"></path><path d="M972 4625L1782 3815" stroke-width="10" stroke="url(#SvgjsLinearGradient1036)" stroke-linecap="round" class="TopRight"></path><path d="M1831 1364L2480 715" stroke-width="6" stroke="url(#SvgjsLinearGradient1035)" stroke-linecap="round" class="BottomLeft"></path><path d="M1644 4375L528 5491" stroke-width="10" stroke="url(#SvgjsLinearGradient1035)" stroke-linecap="round" class="BottomLeft"></path><path d="M1101 3799L443 4457" stroke-width="6" stroke="url(#SvgjsLinearGradient1036)" stroke-linecap="round" class="TopRight"></path><path d="M330 658L1334 -346" stroke-width="10" stroke="url(#SvgjsLinearGradient1036)" stroke-linecap="round" class="TopRight"></path><path d="M1347 5342L-24 6713" stroke-width="10" stroke="url(#SvgjsLinearGradient1036)" stroke-linecap="round" class="TopRight"></path><path d="M591 2976L-573 4140" stroke-width="10" stroke="url(#SvgjsLinearGradient1036)" stroke-linecap="round" class="TopRight"></path><path d="M86 2301L-565 2952" stroke-width="6" stroke="url(#SvgjsLinearGradient1036)" stroke-linecap="round" class="TopRight"></path><path d="M1029 2542L171 3400" stroke-width="10" stroke="url(#SvgjsLinearGradient1035)" stroke-linecap="round" class="BottomLeft"></path><path d="M189 4489L-1157 5835" stroke-width="10" stroke="url(#SvgjsLinearGradient1035)" stroke-linecap="round" class="BottomLeft"></path><path d="M959 3757L85 4631" stroke-width="8" stroke="url(#SvgjsLinearGradient1036)" stroke-linecap="round" class="TopRight"></path><path d="M654 5147L-653 6454" stroke-width="8" stroke="url(#SvgjsLinearGradient1035)" stroke-linecap="round" class="BottomLeft"></path><path d="M1270 585L399 1456" stroke-width="6" stroke="url(#SvgjsLinearGradient1036)" stroke-linecap="round" class="TopRight"></path><path d="M229 842L1018 53" stroke-width="8" stroke="url(#SvgjsLinearGradient1036)" stroke-linecap="round" class="TopRight"></path><path d="M1055 3563L-100 4718" stroke-width="8" stroke="url(#SvgjsLinearGradient1035)" stroke-linecap="round" class="BottomLeft"></path><path d="M1670 2343L252 3761" stroke-width="6" stroke="url(#SvgjsLinearGradient1035)" stroke-linecap="round" class="BottomLeft"></path><path d="M830 1176L-523 2529" stroke-width="10" stroke="url(#SvgjsLinearGradient1035)" stroke-linecap="round" class="BottomLeft"></path><path d="M245 2326L-236 2807" stroke-width="6" stroke="url(#SvgjsLinearGradient1036)" stroke-linecap="round" class="TopRight"></path><path d="M684 1246L1857 73" stroke-width="10" stroke="url(#SvgjsLinearGradient1036)" stroke-linecap="round" class="TopRight"></path><path d="M387 3559L1597 2349" stroke-width="8" stroke="url(#SvgjsLinearGradient1036)" stroke-linecap="round" class="TopRight"></path><path d="M518 404L1323 -401" stroke-width="8" stroke="url(#SvgjsLinearGradient1036)" stroke-linecap="round" class="TopRight"></path><path d="M1442 1666L502 2606" stroke-width="10" stroke="url(#SvgjsLinearGradient1035)" stroke-linecap="round" class="BottomLeft"></path><path d="M1305 943L1991 257" stroke-width="10" stroke="url(#SvgjsLinearGradient1035)" stroke-linecap="round" class="BottomLeft"></path><path d="M91 3944L-1107 5142" stroke-width="10" stroke="url(#SvgjsLinearGradient1036)" stroke-linecap="round" class="TopRight"></path><path d="M280 5181L1532 3929" stroke-width="10" stroke="url(#SvgjsLinearGradient1036)" stroke-linecap="round" class="TopRight"></path><path d="M1228 4870L153 5945" stroke-width="6" stroke="url(#SvgjsLinearGradient1035)" stroke-linecap="round" class="BottomLeft"></path><path d="M1607 5156L2252 4511" stroke-width="10" stroke="url(#SvgjsLinearGradient1035)" stroke-linecap="round" class="BottomLeft"></path><path d="M1063 2161L1869 1355" stroke-width="10" stroke="url(#SvgjsLinearGradient1036)" stroke-linecap="round" class="TopRight"></path><path d="M1842 1212L981 2073" stroke-width="10" stroke="url(#SvgjsLinearGradient1035)" stroke-linecap="round" class="BottomLeft"></path><path d="M297 448L1623 -878" stroke-width="6" stroke="url(#SvgjsLinearGradient1036)" stroke-linecap="round" class="TopRight"></path><path d="M1571 2486L150 3907" stroke-width="8" stroke="url(#SvgjsLinearGradient1036)" stroke-linecap="round" class="TopRight"></path><path d="M695 2275L1996 974" stroke-width="6" stroke="url(#SvgjsLinearGradient1036)" stroke-linecap="round" class="TopRight"></path><path d="M1680 2060L2977 763" stroke-width="10" stroke="url(#SvgjsLinearGradient1036)" stroke-linecap="round" class="TopRight"></path><path d="M1907 86L995 998" stroke-width="6" stroke="url(#SvgjsLinearGradient1035)" stroke-linecap="round" class="BottomLeft"></path><path d="M1880 3774L653 5001" stroke-width="10" stroke="url(#SvgjsLinearGradient1036)" stroke-linecap="round" class="TopRight"></path><path d="M636 2380L125 2891" stroke-width="10" stroke="url(#SvgjsLinearGradient1035)" stroke-linecap="round" class="BottomLeft"></path><path d="M1425 159L845 739" stroke-width="6" stroke="url(#SvgjsLinearGradient1035)" stroke-linecap="round" class="BottomLeft"></path><path d="M1306 3745L182 4869" stroke-width="6" stroke="url(#SvgjsLinearGradient1036)" stroke-linecap="round" class="TopRight"></path><path d="M602 2674L-68 3344" stroke-width="6" stroke="url(#SvgjsLinearGradient1036)" stroke-linecap="round" class="TopRight"></path><path d="M100 15L-429 544" stroke-width="10" stroke="url(#SvgjsLinearGradient1036)" stroke-linecap="round" class="TopRight"></path><path d="M255 1307L1429 133" stroke-width="8" stroke="url(#SvgjsLinearGradient1035)" stroke-linecap="round" class="BottomLeft"></path></g><defs><mask id="SvgjsMask1034"><rect width="1920" height="5600" fill="#ffffff"></rect></mask><linearGradient x1="100%" y1="0%" x2="0%" y2="100%" id="SvgjsLinearGradient1035"><stop stop-color="rgba(125, 112, 83, 0)" offset="0"></stop><stop stop-color="rgba(125, 112, 83, 0.25)" offset="1"></stop></linearGradient><linearGradient x1="0%" y1="100%" x2="100%" y2="0%" id="SvgjsLinearGradient1036"><stop stop-color="rgba(125, 112, 83, 0)" offset="0"></stop><stop stop-color="rgba(125, 112, 83, 0.25)" offset="1"></stop></linearGradient></defs></svg>