<svg width="105" height="105" viewBox="0 0 105 105" fill="none" xmlns="http://www.w3.org/2000/svg">
<g clip-path="url(#clip0)">
<path d="M64.376 42.7466L48.5997 57.6476L41.0282 49.8581C40.1888 48.994 38.8067 48.9743 37.9434 49.8137C37.0792 50.6539 37.0596 52.0352 37.8989 52.8994L46.9799 62.2214C47.8235 63.0702 49.1869 63.0992 50.0656 62.2863L67.4181 45.9194C67.8395 45.522 68.0856 44.9732 68.1019 44.3945C68.1181 43.8159 67.9036 43.2543 67.5052 42.8337C66.6607 41.9559 65.2683 41.9174 64.376 42.7466Z" fill="black"/>
<path d="M52.6692 19.8142C34.6389 19.8142 19.978 34.475 19.978 52.5053C19.978 70.5365 34.6389 85.1973 52.6692 85.1973C70.7003 85.1973 85.3611 70.5365 85.3611 52.5053C85.3611 34.475 70.7003 19.8142 52.6692 19.8142ZM52.6692 80.8209C37.0459 80.8209 24.3544 68.1073 24.3544 52.5053C24.3544 36.9034 37.0459 24.1906 52.6692 24.1906C68.3078 24.1906 80.9848 36.8675 80.9848 52.5053C80.9848 68.1432 68.3078 80.8209 52.6692 80.8209Z" fill="black"/>
<path d="M97.6586 40.4703L98.3809 27.4942C98.4313 26.6232 97.9578 25.8052 97.1774 25.4154L85.6236 19.5731L79.7813 8.01932C79.3839 7.24577 78.571 6.77479 77.7026 6.81582L64.7042 7.51672L53.8727 0.360678C53.1428 -0.120552 52.1965 -0.120552 51.4657 0.360678L40.6342 7.51672L27.659 6.79445C26.7871 6.74317 25.97 7.2167 25.5802 7.99795L19.737 19.5517L8.18411 25.394C7.4097 25.7906 6.93958 26.6035 6.98061 27.4728L7.70203 40.4489L0.546835 51.2804C0.0656057 52.0104 0.0656057 52.9566 0.546835 53.6874L7.68066 64.5403L6.95839 77.5164C6.90796 78.3874 7.38064 79.2054 8.16189 79.5952L19.7157 85.4374L25.558 96.9912C25.9546 97.7656 26.7674 98.2358 27.6367 98.1947L40.6128 97.4725L51.4444 104.628C52.17 105.124 53.1257 105.124 53.8514 104.628L64.6829 97.4725L77.659 98.1947C78.53 98.2452 79.3471 97.7716 79.7378 96.9912L85.58 85.4374L97.1338 79.5952C97.9074 79.1977 98.3783 78.3857 98.3373 77.5164L97.6151 64.5403L104.77 53.7088C105.251 52.9788 105.251 52.0317 104.77 51.3018L97.6586 40.4703ZM93.5883 62.7461C93.3216 63.1376 93.1977 63.6086 93.2387 64.0813L93.9165 76.3565L82.9978 81.8705C82.5815 82.0791 82.2439 82.4176 82.0353 82.8338L76.5204 93.7525L64.2452 93.0747C63.7751 93.0576 63.311 93.179 62.9101 93.4243L52.6692 100.186L42.4292 93.4243C42.0736 93.1841 41.6548 93.0542 41.2257 93.0525H41.1163L28.8402 93.7312L23.3262 82.8116C23.1176 82.3954 22.78 82.0577 22.3629 81.8492L11.4219 76.3565L12.1006 64.0813C12.1177 63.6112 11.9955 63.147 11.7502 62.7461L4.98902 52.5053L11.7502 42.2644C12.0177 41.8738 12.1417 41.402 12.1006 40.9301L11.4219 28.6541L22.3415 23.14C22.7578 22.9315 23.0954 22.5938 23.304 22.1776L28.818 11.258L41.0941 11.9367C41.5633 11.9529 42.0275 11.8315 42.4292 11.5862L52.6692 4.82509L62.9101 11.5862C63.3016 11.8538 63.7734 11.9777 64.2452 11.9367L76.5204 11.258L82.0353 22.1776C82.2439 22.5938 82.5815 22.9315 82.9978 23.14L93.9165 28.6541L93.2387 40.9301C93.2216 41.3994 93.3438 41.8635 93.5883 42.2644L100.35 52.5053L93.5883 62.7461Z" fill="black"/>
</g>
<defs>
<clipPath id="clip0">
<rect width="105" height="105" fill="white"/>
</clipPath>
</defs>
</svg>
