<svg width="126" height="126" viewBox="0 0 126 126" fill="none" xmlns="http://www.w3.org/2000/svg">
<g clip-path="url(#clip0)">
<path d="M119.569 87.3555C113.393 81.193 104.048 79.2951 95.951 82.4441L92.4058 78.9068C92.6871 78.6949 92.958 78.4629 93.2142 78.2072L102.06 69.3811C103.509 67.9346 104.308 66.0053 104.308 63.9485C104.308 61.8917 103.509 59.9624 102.06 58.5159H102.06C100.452 56.9121 98.3053 56.1685 96.1965 56.2829C96.2492 55.8968 96.2778 55.5048 96.2778 55.1081C96.2778 52.8276 95.3916 50.6894 93.7824 49.0873C92.2213 47.5299 90.2007 46.704 88.152 46.6093C89.129 43.6444 88.4424 40.2346 86.1021 37.8934C84.1888 35.9842 81.5852 35.1763 79.0854 35.4652C79.1219 35.1424 79.1428 34.8158 79.1428 34.4858C79.1428 32.2053 78.2583 30.0671 76.6526 28.4648C73.3285 25.1481 67.9198 25.1483 64.5956 28.4648L58.9421 34.1059L58.5045 33.6693C56.3887 31.5579 52.942 31.5608 50.8217 33.6764L48.9456 35.5484L43.4778 30.088C46.6326 22.0051 44.7291 12.6819 38.5521 6.51864C33.4094 1.38725 26.0431 -0.865914 18.8509 0.491988C17.8216 0.685658 14.6896 1.27503 14.0469 3.67142C13.4184 6.01514 15.6533 7.93634 16.7277 8.85965C16.8365 8.95317 25.5551 17.6361 25.5551 17.6361C27.8188 19.8949 27.9709 23.5306 25.9232 25.9678C23.4776 28.0135 19.8284 27.8624 17.5615 25.6004C17.5615 25.6004 8.85936 16.901 8.76536 16.7922C7.83983 15.7205 5.91297 13.4915 3.56925 14.1207C1.17336 14.765 0.58275 17.8883 0.388834 18.9137C-0.972268 26.0955 1.28631 33.4476 6.43099 38.5807C12.6073 44.7429 21.9514 46.6408 30.0491 43.4921L36.3794 49.8081C35.6067 51.8044 35.2464 54.0014 35.3786 56.2078C35.6788 61.1598 33.0538 66.0168 26.6007 72.4493L19.8789 79.1561C17.6038 77.9892 14.7374 78.3531 12.8337 80.2524L3.41938 89.6458C2.27853 90.7839 1.65052 92.3015 1.65052 93.9191C1.65052 95.5366 2.27878 97.0542 3.41914 98.1921L29.4164 124.131C30.5954 125.308 32.1443 125.896 33.6931 125.896C35.242 125.896 36.7909 125.308 37.9701 124.131L47.3844 114.738C48.5252 113.6 49.1533 112.082 49.1533 110.464C49.1533 109.486 48.9222 108.546 48.4886 107.703L59.923 96.2935C63.3123 92.9121 63.863 93.0036 67.4529 93.6028C68.0571 93.7037 68.742 93.8182 69.5124 93.9279C72.6461 94.378 76.2847 92.7858 78.3494 91.6831L82.522 95.8476C81.4206 98.6739 80.9092 101.748 81.0384 104.815C81.08 105.807 81.8972 106.584 82.8808 106.584C82.9069 106.584 82.9335 106.583 82.9598 106.582C83.9781 106.539 84.7691 105.679 84.7262 104.66C84.6034 101.736 85.1763 98.8093 86.3834 96.1954C86.7077 95.4925 86.5593 94.662 86.0113 94.1152L56.4778 64.6407C57.6789 62.3775 58.3588 59.9702 58.4336 57.6068C60.5593 59.4343 63.3554 60.9231 66.0889 61.6579C68.3273 62.2596 70.4217 62.3575 72.3026 61.9682C72.3023 61.9891 72.3011 62.0098 72.3011 62.0307C72.3026 64.308 73.1892 66.444 74.7947 68.0414C76.3049 69.5521 78.2898 70.4237 80.4214 70.5214C80.2022 71.2417 80.0885 71.9992 80.0885 72.7746C80.0885 74.8314 80.8868 76.7607 82.3365 78.207C83.8361 79.7032 85.8053 80.4513 87.7752 80.451C88.0752 80.451 88.3749 80.4316 88.6734 80.3966L94.2222 85.9331C94.768 86.4777 95.5946 86.6256 96.2952 86.3042C103.259 83.1112 111.565 84.5833 116.962 89.9679C121.24 94.2368 123.118 100.355 121.984 106.335C121.794 107.337 121.579 107.862 121.441 108.118C121.176 107.944 120.74 107.555 120.029 106.731C119.869 106.545 111.046 97.7221 111.046 97.7221C107.384 94.0677 101.459 93.8671 97.5572 97.2658C97.4944 97.3207 97.4356 97.3793 97.3805 97.442C93.9712 101.338 94.1722 107.255 97.8379 110.913L108.251 121.276C107.992 121.414 107.465 121.628 106.465 121.816C100.469 122.947 94.3344 121.074 90.0577 116.807C88.701 115.447 87.5739 113.901 86.7077 112.211C86.2426 111.303 85.1308 110.945 84.2232 111.41C83.3162 111.875 82.9578 112.988 83.423 113.895C84.4641 115.926 85.8171 117.783 87.4474 119.417C91.6046 123.564 97.2134 125.832 103.009 125.831C104.384 125.831 105.77 125.704 107.149 125.444C108.178 125.25 111.31 124.661 111.953 122.264C112.581 119.921 110.346 117.999 109.272 117.076C109.163 116.982 100.445 108.3 100.445 108.3C98.181 106.041 98.0289 102.405 100.077 99.9678C102.522 97.9221 106.171 98.0735 108.438 100.335C108.438 100.335 117.14 109.035 117.234 109.143C118.16 110.215 120.088 112.445 122.431 111.815C124.826 111.171 125.417 108.047 125.61 107.022C126.972 99.8409 124.713 92.4888 119.569 87.3555ZM83.4931 40.5053C85.3414 42.3542 85.3705 45.3801 83.5605 47.2572L77.6279 53.1768C76.6093 51.701 71.005 46.1424 71.005 46.1424L76.6526 40.5071C78.5394 38.6245 81.6088 38.625 83.4931 40.5053ZM67.2032 31.0785C69.0897 29.1962 72.1598 29.1967 74.0454 31.0785C74.9524 31.9834 75.4517 33.1936 75.4517 34.4863C75.4517 35.779 74.9524 36.9893 74.0454 37.8941L68.3918 43.5351L61.5552 36.7139L67.2032 31.0785ZM31.7776 40.0026C31.2323 39.4582 30.4059 39.3103 29.7048 39.6315C22.7401 42.8242 14.4349 41.3524 9.03851 35.9678C4.75982 31.6989 2.88218 25.5807 4.0159 19.6006C4.20563 18.5988 4.42071 18.0741 4.55926 17.8177C4.82454 17.9917 5.25986 18.381 5.9713 19.2051C6.13101 19.3902 14.9542 28.2136 14.9542 28.2136C18.6167 31.8682 24.5414 32.0688 28.4429 28.6698C28.5056 28.6152 28.5645 28.5561 28.6196 28.4936C32.0289 24.5976 31.8278 18.6807 28.1621 15.0231C28.1621 15.0231 17.9249 4.92498 17.749 4.65995C18.0084 4.52116 18.535 4.30755 19.5346 4.1193C25.53 2.98779 31.6654 4.86149 35.9453 9.13207C41.3398 14.5145 42.8151 22.797 39.6164 29.7423C39.2931 30.4446 39.4417 31.2739 39.9888 31.8202L46.3331 38.1562L39.4557 45.0181C39.014 45.459 38.608 45.9374 38.2317 46.4417L31.7776 40.0026ZM74.7967 56.0016C74.3188 56.4785 73.9063 57.0034 73.5601 57.564C69.6286 60 63.4122 57.3167 60.3187 54.3368L59.935 53.9547C57.1072 51.1365 55.6032 49.6361 55.4644 49.4939C55.4619 49.4914 55.4595 49.4894 55.457 49.487C55.4501 49.4801 55.4437 49.4727 55.4368 49.4658C55.427 49.456 55.4171 49.4488 55.4073 49.44C54.7015 48.7642 53.583 48.7524 52.865 49.4311C52.1242 50.1315 52.0918 51.2997 52.7921 52.0404C52.7988 52.0473 52.8098 52.0588 52.8293 52.0785C54.089 53.3355 54.7549 55.0963 54.7549 57.1703C54.7549 60.4329 53.0877 64.0442 50.2948 66.8306C49.5733 67.5507 49.5721 68.7191 50.2919 69.4406C50.6527 69.8019 51.1256 69.9828 51.5986 69.9828C52.0704 69.9828 52.5421 69.8031 52.9024 69.4436C53.4371 68.9101 53.9327 68.3519 54.3966 67.7783L75.5994 88.9388C73.4501 89.9475 71.3697 90.4657 70.0354 90.2738C69.3062 90.1697 68.6443 90.0592 68.0603 89.9617C63.7836 89.2481 61.867 89.1391 57.3154 93.6804L46.0806 104.89L36.7973 95.6279C36.0757 94.9078 34.9071 94.9091 34.1873 95.6308C33.4672 96.3524 33.4687 97.521 34.1905 98.2408L44.7734 108.8C44.7737 108.8 44.7741 108.801 44.7744 108.801L44.7756 108.803L44.7776 108.805C45.2191 109.245 45.4622 109.835 45.4622 110.465C45.4622 111.095 45.2191 111.684 44.7773 112.125L35.3626 121.518C34.4417 122.437 32.9438 122.437 32.0234 121.518L6.02642 95.5794C5.58494 95.1387 5.34181 94.549 5.34181 93.9193C5.34181 93.2896 5.58494 92.6997 6.02667 92.2592L15.4409 82.8656C16.3618 81.9472 17.8597 81.9475 18.7801 82.8656L28.0893 92.1541C28.811 92.8739 29.9795 92.8729 30.6995 92.1512C31.4195 91.4297 31.4181 90.261 30.6965 89.5412L22.6965 81.5591L29.2072 75.0627C36.486 67.8071 39.4336 62.1016 39.063 55.9859C38.8762 52.865 40.0257 49.6634 42.0623 47.6308L53.4287 36.2899C54.0996 35.62 55.2301 35.6173 55.897 36.2827L57.6351 38.0169L69.6638 50.019C69.9884 50.3429 70.3122 50.6633 70.6316 50.9793C72.1603 52.4915 74.364 54.6718 74.9633 55.8343L74.7967 56.0016ZM80.8253 66.8402C79.5279 66.8402 78.3135 66.3402 77.4022 65.4284C76.4942 64.5248 75.9934 63.3173 75.9924 62.0285C75.9916 60.7363 76.4929 59.5239 77.4037 58.6148L84.3332 51.701C85.2762 50.76 86.5153 50.2895 87.7541 50.2895C88.9931 50.2895 90.2322 50.76 91.1752 51.701C91.1759 51.7015 91.1764 51.7023 91.1771 51.7027C92.0859 52.6074 92.5867 53.8169 92.5867 55.1088C92.5867 56.3998 92.0867 57.6088 91.1769 58.5151C91.1761 58.5159 91.1754 58.5164 91.1749 58.5171L84.2444 65.4321C83.3368 66.3402 82.1224 66.8402 80.8253 66.8402ZM84.944 75.5945C84.1932 74.8457 83.78 73.8443 83.78 72.7751C83.78 71.7059 84.1935 70.7045 84.9445 69.9552L93.7829 61.1296C94.5645 60.3497 95.5912 59.9599 96.6179 59.9599C97.6445 59.9599 98.6712 60.3497 99.4528 61.1296H99.453C100.204 61.8784 100.617 62.8797 100.617 63.949C100.617 65.0182 100.203 66.0195 99.4528 66.7684L90.6074 75.5945C89.0455 77.1522 86.5047 77.152 84.944 75.5945Z" fill="white"/>
</g>
<defs>
<clipPath id="clip0">
<rect width="126" height="126" fill="white"/>
</clipPath>
</defs>
</svg>
