<svg width="126" height="126" viewBox="0 0 126 126" fill="none" xmlns="http://www.w3.org/2000/svg">
<path d="M116.156 5.90625H9.84375C8.27787 5.90807 6.77666 6.53092 5.66941 7.63816C4.56217 8.74541 3.93932 10.2466 3.9375 11.8125V114.188C3.93932 115.753 4.56217 117.255 5.66941 118.362C6.77666 119.469 8.27787 120.092 9.84375 120.094H116.156C117.722 120.092 119.223 119.469 120.331 118.362C121.438 117.255 122.061 115.753 122.062 114.188V11.8125C122.061 10.2466 121.438 8.74541 120.331 7.63816C119.223 6.53092 117.722 5.90807 116.156 5.90625ZM9.84375 9.84375H116.156C116.678 9.84434 117.179 10.0519 117.548 10.421C117.917 10.7901 118.124 11.2905 118.125 11.8125V21.6562H7.875V11.8125C7.87559 11.2905 8.0832 10.7901 8.45228 10.421C8.82137 10.0519 9.32178 9.84434 9.84375 9.84375ZM116.156 116.156H9.84375C9.32178 116.156 8.82137 115.948 8.45228 115.579C8.0832 115.21 7.87559 114.709 7.875 114.188V25.5938H118.125V114.188C118.124 114.709 117.917 115.21 117.548 115.579C117.179 115.948 116.678 116.156 116.156 116.156Z" fill="white"/>
<path d="M29.5312 17.7188C30.6186 17.7188 31.5 16.8373 31.5 15.75C31.5 14.6627 30.6186 13.7812 29.5312 13.7812C28.4439 13.7812 27.5625 14.6627 27.5625 15.75C27.5625 16.8373 28.4439 17.7188 29.5312 17.7188Z" fill="white"/>
<path d="M21.6562 17.7188C22.7436 17.7188 23.625 16.8373 23.625 15.75C23.625 14.6627 22.7436 13.7812 21.6562 13.7812C20.5689 13.7812 19.6875 14.6627 19.6875 15.75C19.6875 16.8373 20.5689 17.7188 21.6562 17.7188Z" fill="white"/>
<path d="M13.7812 17.7188C14.8686 17.7188 15.75 16.8373 15.75 15.75C15.75 14.6627 14.8686 13.7812 13.7812 13.7812C12.6939 13.7812 11.8125 14.6627 11.8125 15.75C11.8125 16.8373 12.6939 17.7188 13.7812 17.7188Z" fill="white"/>
<path d="M108.281 33.4688H17.7188C17.1966 33.4688 16.6958 33.6762 16.3266 34.0454C15.9574 34.4146 15.75 34.9154 15.75 35.4375V66.9375C15.75 67.4596 15.9574 67.9604 16.3266 68.3296C16.6958 68.6988 17.1966 68.9062 17.7188 68.9062H108.281C108.803 68.9062 109.304 68.6988 109.673 68.3296C110.043 67.9604 110.25 67.4596 110.25 66.9375V35.4375C110.25 34.9154 110.043 34.4146 109.673 34.0454C109.304 33.6762 108.803 33.4688 108.281 33.4688ZM76.0058 62.6222L80.7188 57.9091L87.7782 64.9688H77.7656L76.0058 62.6222ZM72.8438 64.9688H57.0938L64.9688 54.4687L72.8438 64.9688ZM52.1719 64.9688H37.25L47.25 50.683L54.7984 61.4666L52.1719 64.9688ZM106.312 64.9688H93.3468L82.1109 53.7328C81.9281 53.55 81.711 53.405 81.4722 53.3061C81.2333 53.2071 80.9773 53.1562 80.7188 53.1562C80.4602 53.1562 80.2042 53.2071 79.9653 53.3061C79.7265 53.405 79.5094 53.55 79.3266 53.7328L73.6192 59.4403L66.5437 50.0062C66.3604 49.7617 66.1226 49.5633 65.8492 49.4266C65.5758 49.2899 65.2744 49.2188 64.9688 49.2188C64.6631 49.2188 64.3617 49.2899 64.0883 49.4266C63.8149 49.5633 63.5771 49.7617 63.3938 50.0062L57.2845 58.152L48.8629 46.1209C48.6814 45.8616 48.44 45.6498 48.1592 45.5036C47.8784 45.3575 47.5666 45.2811 47.25 45.2811C46.9334 45.2811 46.6216 45.3575 46.3408 45.5036C46.06 45.6498 45.8186 45.8616 45.6371 46.1209L32.4438 64.9688H19.6875V37.4062H106.312V64.9688Z" fill="white"/>
<path d="M74.8125 49.2188C75.8998 49.2188 76.7812 48.3373 76.7812 47.25C76.7812 46.1627 75.8998 45.2812 74.8125 45.2812C73.7252 45.2812 72.8438 46.1627 72.8438 47.25C72.8438 48.3373 73.7252 49.2188 74.8125 49.2188Z" fill="white"/>
<path d="M66.9375 96.4688H59.0625C57.4961 96.4688 55.9938 97.091 54.8861 98.1987C53.7785 99.3063 53.1563 100.809 53.1562 102.375C53.1563 103.941 53.7785 105.444 54.8861 106.551C55.9938 107.659 57.4961 108.281 59.0625 108.281H66.9375C68.5039 108.281 70.0062 107.659 71.1138 106.551C72.2215 105.444 72.8438 103.941 72.8438 102.375C72.8438 100.809 72.2215 99.3063 71.1138 98.1987C70.0062 97.091 68.5039 96.4688 66.9375 96.4688ZM66.9375 104.344H59.0625C58.5404 104.344 58.0396 104.136 57.6704 103.767C57.3012 103.398 57.0938 102.897 57.0938 102.375C57.0938 101.853 57.3012 101.352 57.6704 100.983C58.0396 100.614 58.5404 100.406 59.0625 100.406H66.9375C67.4596 100.406 67.9604 100.614 68.3296 100.983C68.6988 101.352 68.9062 101.853 68.9062 102.375C68.9062 102.897 68.6988 103.398 68.3296 103.767C67.9604 104.136 67.4596 104.344 66.9375 104.344Z" fill="white"/>
<path d="M74.8125 80.7188C75.3346 80.7188 75.8354 80.5113 76.2046 80.1421C76.5738 79.7729 76.7812 79.2721 76.7812 78.75C76.7812 78.2279 76.5738 77.7271 76.2046 77.3579C75.8354 76.9887 75.3346 76.7812 74.8125 76.7812H51.1875C50.6654 76.7812 50.1646 76.9887 49.7954 77.3579C49.4262 77.7271 49.2188 78.2279 49.2188 78.75C49.2188 79.2721 49.4262 79.7729 49.7954 80.1421C50.1646 80.5113 50.6654 80.7188 51.1875 80.7188H74.8125Z" fill="white"/>
<path d="M84.6562 84.6562H41.3438C40.8216 84.6562 40.3208 84.8637 39.9516 85.2329C39.5824 85.6021 39.375 86.1029 39.375 86.625C39.375 87.1471 39.5824 87.6479 39.9516 88.0171C40.3208 88.3863 40.8216 88.5938 41.3438 88.5938H84.6562C85.1784 88.5938 85.6792 88.3863 86.0484 88.0171C86.4176 87.6479 86.625 87.1471 86.625 86.625C86.625 86.1029 86.4176 85.6021 86.0484 85.2329C85.6792 84.8637 85.1784 84.6562 84.6562 84.6562Z" fill="white"/>
<path d="M33.4688 84.6562H29.5312C29.0091 84.6562 28.5083 84.8637 28.1391 85.2329C27.7699 85.6021 27.5625 86.1029 27.5625 86.625C27.5625 87.1471 27.7699 87.6479 28.1391 88.0171C28.5083 88.3863 29.0091 88.5938 29.5312 88.5938H33.4688C33.9909 88.5938 34.4917 88.3863 34.8609 88.0171C35.2301 87.6479 35.4375 87.1471 35.4375 86.625C35.4375 86.1029 35.2301 85.6021 34.8609 85.2329C34.4917 84.8637 33.9909 84.6562 33.4688 84.6562Z" fill="white"/>
<path d="M96.4688 84.6562H92.5312C92.0091 84.6562 91.5083 84.8637 91.1391 85.2329C90.7699 85.6021 90.5625 86.1029 90.5625 86.625C90.5625 87.1471 90.7699 87.6479 91.1391 88.0171C91.5083 88.3863 92.0091 88.5938 92.5312 88.5938H96.4688C96.9909 88.5938 97.4917 88.3863 97.8609 88.0171C98.2301 87.6479 98.4375 87.1471 98.4375 86.625C98.4375 86.1029 98.2301 85.6021 97.8609 85.2329C97.4917 84.8637 96.9909 84.6562 96.4688 84.6562Z" fill="white"/>
</svg>
