<svg width="126" height="126" viewBox="0 0 126 126" fill="none" xmlns="http://www.w3.org/2000/svg">
<g clip-path="url(#clip0)">
<path d="M79.7911 99.4238H31.352C30.332 99.4238 29.5063 100.251 29.5063 101.27C29.5063 102.289 30.332 103.115 31.352 103.115H51.4769C50.7328 107.056 49.2601 111.953 46.3435 115.633C45.3072 116.943 45.1169 118.694 45.8465 120.205C46.5857 121.733 48.0959 122.682 49.7878 122.682H76.2122C77.905 122.682 79.4152 121.733 80.1535 120.205C80.8841 118.694 80.6938 116.943 79.6565 115.633C76.7409 111.953 75.2682 107.057 74.5241 103.115H79.7911C80.8101 103.115 81.6368 102.289 81.6368 101.27C81.6368 100.251 80.8101 99.4238 79.7911 99.4238ZM76.763 117.926C76.9639 118.18 76.911 118.432 76.8303 118.598C76.7736 118.715 76.5986 118.99 76.2112 118.99H49.7878C49.4014 118.99 49.2274 118.715 49.1697 118.598C49.0899 118.432 49.0361 118.18 49.237 117.926C52.7833 113.45 54.4454 107.597 55.2269 103.115H70.7731C71.5546 107.597 73.2167 113.451 76.763 117.926Z" fill="white"/>
<path d="M124.154 31.6452C125.174 31.6452 126 30.8184 126 29.7995V19.5C126 16.4046 123.482 13.888 120.388 13.888H112.439V7.76733C112.439 5.38426 110.5 3.44531 108.117 3.44531H17.8822C15.4991 3.44531 13.5602 5.38426 13.5602 7.76733V13.887H5.61209C2.51765 13.887 0 16.4046 0 19.5V98.7586C0 101.161 1.95433 103.115 4.35663 103.115H23.3135C24.3335 103.115 25.1592 102.289 25.1592 101.27C25.1592 100.251 24.3335 99.4238 23.3135 99.4238H4.35663C3.99037 99.4238 3.69141 99.1258 3.69141 98.7586V88.1189H122.309V98.7586C122.309 99.1258 122.01 99.4238 121.643 99.4238H87.8286C86.8086 99.4238 85.9828 100.251 85.9828 101.27C85.9828 102.289 86.8086 103.115 87.8286 103.115H121.643C124.046 103.115 126 101.161 126 98.7586V37.8369C126 36.817 125.174 35.9912 124.154 35.9912C123.134 35.9912 122.309 36.817 122.309 37.8369V84.4275H112.439V17.5784H120.388C121.446 17.5784 122.309 18.4407 122.309 19.4991V29.7995C122.309 30.8184 123.135 31.6452 124.154 31.6452ZM108.747 7.76733V15.8106H45.1928V7.13672H108.117C108.465 7.13672 108.747 7.4203 108.747 7.76733ZM17.2516 19.502H35.6028V84.4275H17.2516V19.502ZM39.2943 66.1233C42.0032 64.4487 45.1092 63.5652 48.3151 63.5652C49.2937 63.5652 50.2695 63.6489 51.2279 63.8123V84.4275H39.2943V66.1233ZM72.1737 48.691H62.4665V46.7136H72.1737V48.691ZM72.1737 60.6515H62.4665V58.6751H72.1737V60.6515ZM72.1737 72.613H62.4665V70.6366H72.1737V72.613ZM72.1737 43.0222H61.8512C60.1545 43.0222 58.7751 44.4026 58.7751 46.0984V49.3062C58.7751 51.002 60.1545 52.3824 61.8512 52.3824H72.1737V54.9837H61.8512C60.1545 54.9837 58.7751 56.3641 58.7751 58.0599V61.2677C58.7751 62.9635 60.1545 64.3439 61.8512 64.3439H72.1737V66.9452H61.8512C60.1545 66.9452 58.7751 68.3247 58.7751 70.0214V73.2283C58.7751 74.925 60.1545 76.3044 61.8512 76.3044H72.1737V78.9067H61.8512C60.1545 78.9067 58.7751 80.2862 58.7751 81.9829V84.4275H54.9193V38.208C54.9193 37.8686 55.1952 37.5927 55.5345 37.5927H72.1737V43.0222ZM62.4665 82.5981H72.1737V84.4275H62.4665V82.5981ZM72.1737 33.9013H55.5345C53.1601 33.9013 51.2279 35.8326 51.2279 38.208V60.0776C50.2656 59.9431 49.2908 59.8738 48.3151 59.8738C45.1659 59.8738 42.0955 60.5775 39.2943 61.9224V19.502H72.1737V33.9013ZM17.8822 7.13672H41.5014V15.8106H17.2516V7.76733C17.2516 7.4203 17.5342 7.13672 17.8822 7.13672ZM3.69141 19.5C3.69141 18.4407 4.55273 17.5794 5.61209 17.5794H13.5602V84.4275H3.69141V19.5ZM75.8651 84.4275V19.502H108.747V84.4275H75.8651Z" fill="white"/>
<path d="M24.295 13.3996H24.3066C25.3207 13.3996 26.1455 12.5806 26.1523 11.5645C26.158 10.5455 25.3361 9.71396 24.3171 9.70819H24.297C24.2931 9.70819 24.2893 9.70819 24.2854 9.70819C23.2712 9.70819 22.4561 10.5272 22.4503 11.5433C22.4445 12.5623 23.276 13.3938 24.295 13.3996Z" fill="white"/>
<path d="M29.5755 13.415C30.5954 13.415 31.4212 12.5883 31.4212 11.5693C31.4212 10.5503 30.5954 9.72357 29.5755 9.72357H29.5553C28.5353 9.72357 27.7202 10.5503 27.7202 11.5693C27.7202 12.5883 28.5555 13.415 29.5755 13.415Z" fill="white"/>
<path d="M34.8338 13.4304H34.8453C35.8595 13.4304 36.6853 12.6113 36.691 11.5952C36.6968 10.5762 35.8758 9.74472 34.8559 9.73895H34.8357C34.8319 9.73895 34.828 9.73895 34.8242 9.73895C33.81 9.73895 32.9948 10.558 32.989 11.5741C32.9833 12.5931 33.8148 13.4246 34.8338 13.4304Z" fill="white"/>
<path d="M65.2283 95.6171C66.2482 95.6171 67.074 94.7903 67.074 93.7714C67.074 92.7514 66.2482 91.9257 65.2283 91.9257H60.7707C59.7508 91.9257 58.925 92.7514 58.925 93.7714C58.925 94.7903 59.7508 95.6171 60.7707 95.6171H65.2283Z" fill="white"/>
<path d="M22.1475 29.4909H25.9619C26.9809 29.4909 27.8076 28.6651 27.8076 27.6452C27.8076 26.6262 26.9809 25.7995 25.9619 25.7995H22.1475C21.1275 25.7995 20.3018 26.6262 20.3018 27.6452C20.3018 28.6651 21.1275 29.4909 22.1475 29.4909Z" fill="white"/>
<path d="M23.624 33.8792C23.624 34.8982 24.4498 35.7249 25.4697 35.7249H29.2842C30.3032 35.7249 31.1299 34.8982 31.1299 33.8792C31.1299 32.8602 30.3032 32.0335 29.2842 32.0335H25.4697C24.4498 32.0335 23.624 32.8602 23.624 33.8792Z" fill="white"/>
<path d="M29.2842 36.6411H25.4697C24.4498 36.6411 23.624 37.4678 23.624 38.4868C23.624 39.5067 24.4498 40.3325 25.4697 40.3325H29.2842C30.3032 40.3325 31.1299 39.5067 31.1299 38.4868C31.1299 37.4678 30.3032 36.6411 29.2842 36.6411Z" fill="white"/>
<path d="M29.2842 41.2486H25.4697C24.4498 41.2486 23.624 42.0753 23.624 43.0943C23.624 44.1142 24.4498 44.94 25.4697 44.94H29.2842C30.3032 44.94 31.1299 44.1142 31.1299 43.0943C31.1299 42.0753 30.3032 41.2486 29.2842 41.2486Z" fill="white"/>
<path d="M29.2842 45.8571H25.4697C24.4498 45.8571 23.624 46.6828 23.624 47.7028C23.624 48.7217 24.4498 49.5485 25.4697 49.5485H29.2842C30.3032 49.5485 31.1299 48.7217 31.1299 47.7028C31.1299 46.6828 30.3032 45.8571 29.2842 45.8571Z" fill="white"/>
<path d="M27.8076 56.8294C27.8076 55.8104 26.9809 54.9837 25.9619 54.9837H22.1475C21.1275 54.9837 20.3018 55.8104 20.3018 56.8294C20.3018 57.8493 21.1275 58.6751 22.1475 58.6751H25.9619C26.9809 58.6751 27.8076 57.8493 27.8076 56.8294Z" fill="white"/>
<path d="M29.2842 61.2178H25.4697C24.4498 61.2178 23.624 62.0445 23.624 63.0635C23.624 64.0825 24.4498 64.9092 25.4697 64.9092H29.2842C30.3032 64.9092 31.1299 64.0825 31.1299 63.0635C31.1299 62.0445 30.3032 61.2178 29.2842 61.2178Z" fill="white"/>
<path d="M29.2842 65.8253H25.4697C24.4498 65.8253 23.624 66.652 23.624 67.671C23.624 68.6909 24.4498 69.5167 25.4697 69.5167H29.2842C30.3032 69.5167 31.1299 68.6909 31.1299 67.671C31.1299 66.652 30.3032 65.8253 29.2842 65.8253Z" fill="white"/>
<path d="M29.2842 70.4328H25.4697C24.4498 70.4328 23.624 71.2595 23.624 72.2785C23.624 73.2984 24.4498 74.1242 25.4697 74.1242H29.2842C30.3032 74.1242 31.1299 73.2984 31.1299 72.2785C31.1299 71.2595 30.3032 70.4328 29.2842 70.4328Z" fill="white"/>
<path d="M29.2842 75.0413H25.4697C24.4498 75.0413 23.624 75.867 23.624 76.887C23.624 77.9059 24.4498 78.7327 25.4697 78.7327H29.2842C30.3032 78.7327 31.1299 77.9059 31.1299 76.887C31.1299 75.867 30.3032 75.0413 29.2842 75.0413Z" fill="white"/>
<path d="M58.2002 29.4909H58.2262C59.2461 29.4909 60.0719 28.6651 60.0719 27.6452C60.0719 26.6262 59.2461 25.7995 58.2262 25.7995H58.2002C57.1812 25.7995 56.3545 26.6262 56.3545 27.6452C56.3545 28.6651 57.1812 29.4909 58.2002 29.4909Z" fill="white"/>
<path d="M65.2706 30.8655H65.2966C66.3165 30.8655 67.1423 30.0388 67.1423 29.0198C67.1423 28.0009 66.3165 27.1741 65.2966 27.1741H65.2706C64.2516 27.1741 63.4249 28.0009 63.4249 29.0198C63.4249 30.0388 64.2516 30.8655 65.2706 30.8655Z" fill="white"/>
<path d="M44.9179 40.3325H44.9438H44.9525C45.9676 40.3325 46.7934 39.5115 46.7982 38.4954C46.803 37.4764 45.9801 36.6459 44.9611 36.6411H44.9352C44.9323 36.6411 44.9294 36.6411 44.9265 36.6411C43.9114 36.6411 43.0856 37.461 43.0808 38.4781C43.076 39.4971 43.8989 40.3277 44.9179 40.3325Z" fill="white"/>
<path d="M53.5312 26.5176H53.5571H53.5658C54.5809 26.5176 55.4067 25.6976 55.4115 24.6805C55.4163 23.6615 54.5944 22.831 53.5744 22.8262H53.5485C53.5456 22.8262 53.5427 22.8262 53.5398 22.8262C52.5247 22.8262 51.6989 23.6471 51.6941 24.6632C51.6893 25.6832 52.5122 26.5128 53.5312 26.5176Z" fill="white"/>
<path d="M98.848 29.6351H84.0814C81.707 29.6351 79.7747 31.5673 79.7747 33.9417V41.6523C79.7747 44.0277 81.707 45.9599 84.0814 45.9599H98.848C101.222 45.9599 103.155 44.0277 103.155 41.6523V33.9417C103.155 31.5673 101.222 29.6351 98.848 29.6351ZM99.4632 41.6533C99.4632 41.9926 99.1873 42.2685 98.848 42.2685H84.0814C83.742 42.2685 83.4661 41.9926 83.4661 41.6533V33.9417C83.4661 33.6033 83.742 33.3265 84.0814 33.3265H98.848C99.1873 33.3265 99.4632 33.6033 99.4632 33.9417V41.6533Z" fill="white"/>
<path d="M98.848 64.6832H84.0814C81.707 64.6832 79.7747 66.6154 79.7747 68.9899V76.7014C79.7747 79.0759 81.707 81.0081 84.0814 81.0081H98.848C101.222 81.0081 103.155 79.0759 103.155 76.7014V68.9899C103.155 66.6154 101.222 64.6832 98.848 64.6832ZM99.4632 76.7014C99.4632 77.0408 99.1873 77.3167 98.848 77.3167H84.0814C83.742 77.3167 83.4661 77.0408 83.4661 76.7014V68.9899C83.4661 68.6515 83.742 68.3746 84.0814 68.3746H98.848C99.1873 68.3746 99.4632 68.6515 99.4632 68.9899V76.7014Z" fill="white"/>
<path d="M84.1669 51.746H93.4339C94.4529 51.746 95.2796 50.9203 95.2796 49.9003C95.2796 48.8813 94.4529 48.0546 93.4339 48.0546H84.1669C83.147 48.0546 82.3212 48.8813 82.3212 49.9003C82.3212 50.9203 83.147 51.746 84.1669 51.746Z" fill="white"/>
<path d="M84.1669 55.8738H86.9884C88.0083 55.8738 88.8341 55.0481 88.8341 54.0281C88.8341 53.0092 88.0083 52.1824 86.9884 52.1824H84.1669C83.147 52.1824 82.3212 53.0092 82.3212 54.0281C82.3212 55.0481 83.147 55.8738 84.1669 55.8738Z" fill="white"/>
</g>
<defs>
<clipPath id="clip0">
<rect width="126" height="126" fill="white"/>
</clipPath>
</defs>
</svg>
