<svg width="126" height="126" viewBox="0 0 126 126" fill="none" xmlns="http://www.w3.org/2000/svg">
<path d="M118.236 9.86365H7.76401C3.48272 9.86365 0 13.3464 0 17.6274V92.5908C0 96.8718 3.48272 100.355 7.76401 100.355H45.1274L43.6162 112.445H37.3546C36.335 112.445 35.5089 113.271 35.5089 114.291C35.5089 115.31 36.335 116.136 37.3546 116.136H88.6454C89.665 116.136 90.4911 115.31 90.4911 114.291C90.4911 113.271 89.665 112.445 88.6454 112.445H82.3841L80.8726 100.355H118.236C122.517 100.355 126 96.8718 126 92.5908V17.6274C126 13.3464 122.517 9.86365 118.236 9.86365ZM47.3364 112.445L48.8479 100.355H55.6408L56.3072 103.02C57.0765 106.097 59.8288 108.245 63.0002 108.245C66.1717 108.245 68.924 106.097 69.6933 103.02L70.3597 100.355H77.1526L78.6636 112.445H47.3364ZM59.4457 100.355H66.5541L66.1116 102.124C65.754 103.555 64.4746 104.554 62.9998 104.554C61.5249 104.554 60.2457 103.555 59.8879 102.124L59.4457 100.355ZM122.309 92.5908C122.309 94.8364 120.482 96.6631 118.236 96.6631H7.76401C5.51841 96.6631 3.69141 94.8364 3.69141 92.5908V17.6274C3.69141 15.3818 5.51841 13.5551 7.76401 13.5551H118.236C120.482 13.5551 122.309 15.3818 122.309 17.6274V92.5908Z" fill="white"/>
<path d="M104.427 17.7546H9.73643C8.71687 17.7546 7.89073 18.5808 7.89073 19.6003V90.6181C7.89073 91.6376 8.71687 92.4638 9.73643 92.4638H13.6821C14.7016 92.4638 15.5278 91.6376 15.5278 90.6181C15.528 89.5988 14.7016 88.7724 13.6823 88.7724H11.5824V21.446H104.427C105.446 21.446 106.273 20.6197 106.273 19.6003C106.273 18.5808 105.446 17.7546 104.427 17.7546Z" fill="white"/>
<path d="M116.264 17.7546H112.318C111.298 17.7546 110.472 18.5808 110.472 19.6003C110.472 20.6197 111.298 21.446 112.318 21.446H114.418V88.7724H21.5731C20.5535 88.7724 19.7274 89.5988 19.7274 90.6181C19.7274 91.6376 20.5535 92.4638 21.5731 92.4638H116.263C117.283 92.4638 118.109 91.6376 118.109 90.6181V19.6003C118.109 18.5808 117.283 17.7546 116.264 17.7546Z" fill="white"/>
<path d="M88.1262 38.1898C87.7944 37.7658 87.2941 37.5079 86.7567 37.4835L43.357 35.5106C43.3231 35.5091 43.2899 35.5084 43.2556 35.5089C42.9987 34.6655 42.4558 33.9341 41.721 33.4439L36.4061 29.9007C35.5581 29.3354 34.412 29.5645 33.8467 30.4128C33.2815 31.2611 33.5106 32.4069 34.3586 32.9721L39.6733 36.5149C39.6984 36.5317 39.7168 36.557 39.7252 36.586L46.495 60.2802C46.7061 61.019 47.0536 61.6829 47.4998 62.2563L45.0228 67.2102C44.4266 68.4025 44.4891 69.7912 45.1899 70.9252C45.4442 71.3364 45.7665 71.6866 46.1369 71.9672C45.6521 72.8135 45.3733 73.7925 45.3733 74.8359C45.3733 78.0292 47.9713 80.627 51.1644 80.627C54.3574 80.627 56.9554 78.029 56.9554 74.8359C56.9554 74.0954 56.8142 73.3876 56.5597 72.7362H73.3869C73.1324 73.3876 72.9912 74.0954 72.9912 74.8359C72.9912 78.0292 75.5892 80.627 78.7822 80.627C81.9753 80.627 84.5733 78.029 84.5733 74.8359C84.5733 73.9096 84.3536 73.0342 83.9652 72.2571C84.3378 71.9194 84.5733 71.4332 84.5733 70.8905C84.5733 69.8712 83.7472 69.0448 82.7276 69.0448H48.4374C48.4111 69.0448 48.3665 69.0448 48.3294 68.9845C48.2922 68.9245 48.3121 68.8849 48.324 68.861L50.6057 64.2977C51.0701 64.417 51.5539 64.4815 52.0491 64.4815C52.2772 64.4815 52.5075 64.468 52.7394 64.4409L78.6742 61.3898C82.0238 60.9956 84.7188 58.5091 85.3803 55.2016L88.4825 39.6893C88.5881 39.1614 88.4579 38.6139 88.1262 38.1898ZM78.7817 72.7367C79.9396 72.7367 80.8814 73.6788 80.8814 74.8364C80.8814 75.9943 79.9396 76.9361 78.7817 76.9361C77.6239 76.9361 76.6821 75.9943 76.6821 74.8364C76.6821 73.6785 77.6239 72.7367 78.7817 72.7367ZM51.1639 72.7367C52.3217 72.7367 53.2635 73.6785 53.2635 74.8364C53.2635 75.9943 52.3217 76.9361 51.1639 76.9361C50.006 76.9361 49.0642 75.9943 49.0642 74.8364C49.0642 73.6785 50.006 72.7367 51.1639 72.7367ZM46.6377 47.3453L44.3247 39.25L51.7038 39.5854L52.9832 47.3453H46.6377ZM52.3082 60.7748C51.279 60.8959 50.3279 60.2612 50.0439 59.2663L47.6925 51.0367H53.5918L55.1425 60.4414L52.3082 60.7748ZM63.1272 59.502L58.8127 60.0097L57.3334 51.0369H63.1272V59.502ZM63.1272 47.3453H56.7246L55.4735 39.757L63.1272 40.1049V47.3453ZM72.4744 58.4022L66.8186 59.0677V51.0367H73.141L72.4744 58.4022ZM73.4752 47.3453H66.8186V40.2725L74.0855 40.6028L73.4752 47.3453ZM81.7602 54.478C81.4132 56.2125 79.9997 57.517 78.2428 57.7238L76.2206 57.9617L76.8475 51.0369H82.4483L81.7602 54.478ZM83.1868 47.3453H77.1819L77.7769 40.7706L84.4412 41.0736L83.1868 47.3453Z" fill="white"/>
</svg>
